%
M48
M72
T01C0.03150
T02C0.03200
T03C0.03543
T04C0.03937
T05C0.04331
T06C0.04400
T07C0.04724
%
T01
X68000Y121800
X68000Y131800
X153000Y101800
X153000Y91800
X153000Y81800
X153000Y71800
X183000Y71800
X183000Y81800
X183000Y91800
X183000Y101800
T02
X188000Y141800
X188000Y151800
X188000Y161800
X188000Y171800
X188000Y181800
X188000Y191800
X188000Y201800
X188000Y211800
X158000Y211800
X158000Y201800
X158000Y191800
X158000Y181800
X158000Y171800
X158000Y161800
X158000Y151800
X158000Y141800
X78000Y211800
X73000Y204300
X68000Y211800
X53000Y195800
X53000Y187800
X258000Y186800
X263000Y179300
X268000Y186800
T03
X138000Y201800
X128000Y201800
X128000Y211800
X138000Y211800
T04
X68000Y86800
X48000Y86800
X58000Y66800
T05
X113000Y26800
X153000Y26800
T06
X8000Y6800
X8000Y236800
X273000Y236800
X273000Y6800
T07
X93000Y34300
X73000Y34300
X48000Y36800
X28000Y36800
M30
