G75*
%MOIN*%
%OFA0B0*%
%FSLAX25Y25*%
%IPPOS*%
%LPD*%
%AMOC8*
5,1,8,0,0,1.08239X$1,22.5*
%
%ADD10C,0.00000*%
%ADD11C,0.00600*%
%ADD12C,0.07874*%
%ADD13R,0.06299X0.07087*%
%ADD14OC8,0.05200*%
%ADD15C,0.05200*%
%ADD16R,0.07087X0.06299*%
%ADD17C,0.05200*%
%ADD18R,0.07098X0.06299*%
%ADD19R,0.06299X0.07098*%
%ADD20OC8,0.10000*%
%ADD21C,0.02000*%
%ADD22C,0.03000*%
%ADD23C,0.01600*%
D10*
X0003000Y0001800D02*
X0003000Y0241761D01*
X0279201Y0241761D01*
X0279201Y0001800D01*
X0003000Y0001800D01*
D11*
X0079757Y0007100D02*
X0079757Y0011370D01*
X0081892Y0013505D01*
X0084027Y0011370D01*
X0084027Y0007100D01*
X0086202Y0007100D02*
X0089405Y0010303D01*
X0090473Y0009235D02*
X0086202Y0013505D01*
X0084027Y0010303D02*
X0079757Y0010303D01*
X0090473Y0013505D02*
X0090473Y0007100D01*
X0092648Y0007100D02*
X0096918Y0007100D01*
X0096918Y0008168D01*
X0092648Y0012438D01*
X0092648Y0013505D01*
X0096918Y0013505D01*
X0099093Y0012438D02*
X0099093Y0011370D01*
X0101228Y0009235D01*
X0101228Y0008168D02*
X0101228Y0007100D01*
X0099093Y0012438D02*
X0100161Y0013505D01*
X0102296Y0013505D01*
X0103364Y0012438D01*
X0105539Y0012438D02*
X0106606Y0013505D01*
X0108741Y0013505D01*
X0109809Y0012438D01*
X0111984Y0011370D02*
X0111984Y0007100D01*
X0107674Y0007100D02*
X0107674Y0008168D01*
X0107674Y0009235D02*
X0105539Y0011370D01*
X0105539Y0012438D01*
X0111984Y0011370D02*
X0114119Y0013505D01*
X0116255Y0011370D01*
X0116255Y0007100D01*
X0118430Y0008168D02*
X0118430Y0010303D01*
X0120565Y0010303D01*
X0122700Y0012438D02*
X0122700Y0008168D01*
X0121632Y0007100D01*
X0119497Y0007100D01*
X0118430Y0008168D01*
X0116255Y0010303D02*
X0111984Y0010303D01*
X0118430Y0012438D02*
X0119497Y0013505D01*
X0121632Y0013505D01*
X0122700Y0012438D01*
D12*
X0113000Y0026800D03*
X0093000Y0034300D03*
X0073000Y0034300D03*
X0048000Y0036800D03*
X0028000Y0036800D03*
X0058000Y0066800D03*
X0048000Y0086800D03*
X0068000Y0086800D03*
X0068000Y0121800D03*
X0068000Y0131800D03*
X0128000Y0201800D03*
X0138000Y0201800D03*
X0138000Y0211800D03*
X0128000Y0211800D03*
X0153000Y0101800D03*
X0153000Y0091800D03*
X0153000Y0081800D03*
X0153000Y0071800D03*
X0183000Y0071800D03*
X0183000Y0081800D03*
X0183000Y0091800D03*
X0183000Y0101800D03*
X0153000Y0026800D03*
D13*
X0138512Y0101800D03*
X0127488Y0101800D03*
X0227488Y0126800D03*
X0238512Y0126800D03*
X0238512Y0156800D03*
X0227488Y0156800D03*
X0252488Y0156800D03*
X0263512Y0156800D03*
X0258512Y0086800D03*
X0247488Y0086800D03*
D14*
X0263000Y0179300D03*
X0258000Y0186800D03*
X0268000Y0186800D03*
X0078000Y0211800D03*
X0073000Y0204300D03*
X0068000Y0211800D03*
X0053000Y0187800D03*
D15*
X0053000Y0195800D03*
D16*
X0218000Y0072312D03*
X0218000Y0061288D03*
X0258000Y0121288D03*
X0258000Y0132312D03*
X0233000Y0196288D03*
X0233000Y0207312D03*
D17*
X0190600Y0211800D02*
X0185400Y0211800D01*
X0185400Y0201800D02*
X0190600Y0201800D01*
X0190600Y0191800D02*
X0185400Y0191800D01*
X0185400Y0181800D02*
X0190600Y0181800D01*
X0190600Y0171800D02*
X0185400Y0171800D01*
X0185400Y0161800D02*
X0190600Y0161800D01*
X0190600Y0151800D02*
X0185400Y0151800D01*
X0185400Y0141800D02*
X0190600Y0141800D01*
X0160600Y0141800D02*
X0155400Y0141800D01*
X0155400Y0151800D02*
X0160600Y0151800D01*
X0160600Y0161800D02*
X0155400Y0161800D01*
X0155400Y0171800D02*
X0160600Y0171800D01*
X0160600Y0181800D02*
X0155400Y0181800D01*
X0155400Y0191800D02*
X0160600Y0191800D01*
X0160600Y0201800D02*
X0155400Y0201800D01*
X0155400Y0211800D02*
X0160600Y0211800D01*
D18*
X0233000Y0216202D03*
X0233000Y0227398D03*
X0243000Y0207398D03*
X0243000Y0196202D03*
X0248000Y0137398D03*
X0248000Y0126202D03*
X0218000Y0102398D03*
X0218000Y0091202D03*
X0203000Y0091202D03*
X0203000Y0102398D03*
D19*
X0227402Y0141800D03*
X0238598Y0141800D03*
X0213598Y0156800D03*
X0202402Y0156800D03*
X0202402Y0176800D03*
X0213598Y0176800D03*
X0218598Y0196800D03*
X0207402Y0196800D03*
X0108598Y0201800D03*
X0108598Y0211800D03*
X0097402Y0211800D03*
X0097402Y0201800D03*
X0083598Y0186800D03*
X0072402Y0186800D03*
X0053598Y0211800D03*
X0042402Y0211800D03*
D20*
X0008000Y0236800D03*
X0008000Y0006800D03*
X0273000Y0006800D03*
X0273000Y0236800D03*
D21*
X0253000Y0206800D02*
X0243598Y0206800D01*
X0243000Y0207398D01*
X0242913Y0207312D01*
X0233000Y0207312D01*
X0233000Y0216202D01*
X0223598Y0216202D01*
X0208000Y0231800D01*
X0118000Y0231800D01*
X0103000Y0216800D01*
X0103000Y0186800D01*
X0133000Y0156800D01*
X0163000Y0156800D01*
X0178000Y0141800D01*
X0188000Y0141800D01*
X0183000Y0146800D02*
X0193000Y0146800D01*
X0198000Y0141800D01*
X0198000Y0136800D01*
X0173000Y0136800D01*
X0163000Y0146800D01*
X0103000Y0146800D01*
X0073000Y0176800D01*
X0073000Y0186202D01*
X0072402Y0186800D01*
X0073000Y0187398D01*
X0073000Y0204300D01*
X0068000Y0211800D02*
X0053598Y0211800D01*
X0053000Y0211202D01*
X0053000Y0195800D01*
X0053000Y0187800D02*
X0053000Y0091800D01*
X0048000Y0086800D01*
X0050500Y0079300D02*
X0045500Y0079300D01*
X0058000Y0066800D02*
X0058000Y0049300D01*
X0048000Y0036800D01*
X0093000Y0034300D02*
X0100500Y0026800D01*
X0113000Y0026800D01*
X0138000Y0081800D02*
X0133000Y0086800D01*
X0133000Y0116800D01*
X0143000Y0131800D01*
X0198000Y0131800D01*
X0213000Y0141800D01*
X0213000Y0156202D01*
X0213598Y0156800D01*
X0227488Y0156800D01*
X0233000Y0151800D02*
X0233000Y0161800D01*
X0231000Y0163800D01*
X0210000Y0163800D01*
X0208000Y0161800D01*
X0208000Y0149300D01*
X0198000Y0149300D01*
X0188000Y0151800D01*
X0183000Y0146800D02*
X0178000Y0151800D01*
X0178000Y0156800D01*
X0183000Y0161800D01*
X0188000Y0161800D01*
X0188000Y0171800D02*
X0193000Y0176800D01*
X0202402Y0176800D01*
X0202402Y0156800D01*
X0210000Y0168800D02*
X0208000Y0170800D01*
X0208000Y0181800D01*
X0203000Y0186800D01*
X0203000Y0192398D01*
X0207402Y0196800D01*
X0203000Y0186800D02*
X0198000Y0186800D01*
X0193000Y0181800D01*
X0188000Y0181800D01*
X0168000Y0196800D02*
X0173000Y0201800D01*
X0173000Y0221800D01*
X0168000Y0226800D01*
X0128000Y0226800D01*
X0113000Y0211800D01*
X0108598Y0211800D01*
X0118000Y0206800D02*
X0123000Y0206800D01*
X0128000Y0211800D01*
X0138000Y0221800D01*
X0158000Y0221800D01*
X0168000Y0211800D01*
X0168000Y0206800D01*
X0163000Y0201800D01*
X0158000Y0201800D01*
X0153000Y0196800D02*
X0168000Y0196800D01*
X0153000Y0196800D02*
X0138000Y0211800D01*
X0158000Y0211800D01*
X0118000Y0206800D02*
X0113000Y0201800D01*
X0108598Y0201800D01*
X0083598Y0187997D02*
X0083598Y0186800D01*
X0157488Y0141800D02*
X0158000Y0141800D01*
X0178000Y0111800D02*
X0173000Y0106800D01*
X0173000Y0081800D01*
X0163000Y0081800D01*
X0153000Y0091800D01*
X0153000Y0081800D02*
X0138000Y0081800D01*
X0128000Y0101288D02*
X0127488Y0101800D01*
X0128000Y0101800D01*
X0173000Y0081800D02*
X0183000Y0081800D01*
X0183000Y0071800D02*
X0218000Y0072312D01*
X0218000Y0091202D02*
X0203000Y0091202D01*
X0202402Y0091800D01*
X0183000Y0091800D01*
X0178000Y0111800D02*
X0198000Y0111800D01*
X0217402Y0102398D01*
X0218000Y0102398D01*
X0231890Y0102398D01*
X0247488Y0086800D01*
X0258000Y0121288D02*
X0258512Y0121800D01*
X0258000Y0132312D02*
X0254110Y0132312D01*
X0248000Y0126202D01*
X0238512Y0126800D02*
X0238000Y0126288D01*
X0243000Y0134300D02*
X0246098Y0137398D01*
X0248000Y0137398D01*
X0248000Y0136800D01*
X0243000Y0134300D02*
X0227988Y0134300D01*
X0227488Y0133800D01*
X0227488Y0141713D01*
X0227402Y0141800D01*
X0227402Y0146202D01*
X0233000Y0151800D01*
X0238512Y0156800D02*
X0238598Y0156713D01*
X0238598Y0141800D01*
X0227488Y0133800D02*
X0227488Y0126800D01*
X0258000Y0132312D02*
X0258000Y0161800D01*
X0251000Y0168800D01*
X0210000Y0168800D01*
X0213598Y0176800D02*
X0213000Y0177398D01*
X0219110Y0196288D02*
X0233000Y0196288D01*
X0242913Y0196288D01*
X0243000Y0196202D01*
X0258598Y0196202D01*
X0263000Y0191800D01*
X0263000Y0179300D01*
X0268000Y0186800D02*
X0268000Y0191800D01*
X0253000Y0206800D01*
X0219110Y0196288D02*
X0218598Y0196800D01*
X0238512Y0156800D02*
X0252488Y0156800D01*
X0263000Y0157312D02*
X0263512Y0156800D01*
X0263512Y0156288D01*
D22*
X0268000Y0151800D01*
X0268000Y0126800D01*
X0263000Y0121800D01*
X0258512Y0121800D01*
X0258000Y0121288D02*
X0258000Y0116800D01*
X0258000Y0091288D01*
X0258512Y0086800D01*
X0258000Y0086288D01*
X0258000Y0071800D01*
X0247488Y0061288D01*
X0218000Y0061288D01*
X0218000Y0026800D01*
X0208000Y0016800D01*
X0133000Y0016800D01*
X0128000Y0021800D01*
X0128000Y0051800D01*
X0088000Y0086800D01*
X0068000Y0086800D01*
X0068000Y0121800D01*
X0058000Y0121800D02*
X0058000Y0086800D01*
X0050500Y0079300D01*
X0045500Y0079300D02*
X0040500Y0084300D01*
X0040500Y0094300D01*
X0048000Y0101800D01*
X0048000Y0216800D01*
X0053000Y0221800D01*
X0073000Y0221800D01*
X0078000Y0216800D01*
X0078000Y0211800D01*
X0097402Y0211800D01*
X0098000Y0212398D01*
X0098000Y0231800D01*
X0103000Y0236800D01*
X0213000Y0236800D01*
X0222402Y0227398D01*
X0233000Y0227398D01*
X0213000Y0206800D02*
X0208000Y0211800D01*
X0188000Y0211800D01*
X0188000Y0201800D01*
X0188000Y0191800D01*
X0183000Y0186800D01*
X0148000Y0186800D01*
X0138000Y0196800D01*
X0138000Y0201800D01*
X0128000Y0201800D01*
X0097402Y0201800D02*
X0083598Y0187997D01*
X0097402Y0201800D02*
X0097402Y0211800D01*
X0042402Y0211800D02*
X0033000Y0202398D01*
X0033000Y0081800D01*
X0040500Y0074300D01*
X0068000Y0074300D01*
X0068000Y0086800D01*
X0068000Y0074300D02*
X0068000Y0039300D01*
X0073000Y0034300D01*
X0065500Y0026800D01*
X0033000Y0026800D01*
X0028000Y0036800D01*
X0058000Y0121800D02*
X0068000Y0131800D01*
X0078000Y0141800D01*
X0128000Y0141800D01*
X0128000Y0101800D01*
X0128000Y0101288D02*
X0128000Y0076800D01*
X0133000Y0071800D01*
X0153000Y0071800D01*
X0163000Y0061800D01*
X0203000Y0061800D01*
X0208000Y0066800D01*
X0228000Y0066800D01*
X0228000Y0091800D01*
X0223000Y0096800D01*
X0213000Y0096800D01*
X0208000Y0101800D01*
X0203000Y0101800D01*
X0203000Y0102398D01*
X0183000Y0102398D01*
X0183000Y0101800D01*
X0168000Y0116800D02*
X0238000Y0116800D01*
X0238000Y0126288D01*
X0238000Y0116800D02*
X0258000Y0116800D01*
X0263000Y0157312D02*
X0263000Y0166800D01*
X0253000Y0176800D01*
X0253000Y0181800D01*
X0258000Y0186800D01*
X0253000Y0176800D02*
X0213598Y0176800D01*
X0213000Y0177398D02*
X0213000Y0206800D01*
X0158000Y0141800D02*
X0128000Y0141800D01*
X0153000Y0101800D02*
X0168000Y0116800D01*
X0153000Y0101800D02*
X0138512Y0101800D01*
X0153000Y0071800D02*
X0153000Y0026800D01*
D23*
X0148823Y0022581D02*
X0117177Y0022581D01*
X0116363Y0021767D02*
X0118033Y0023437D01*
X0118937Y0025619D01*
X0118937Y0027981D01*
X0118033Y0030163D01*
X0116363Y0031833D01*
X0114181Y0032737D01*
X0111819Y0032737D01*
X0109637Y0031833D01*
X0107967Y0030163D01*
X0107816Y0029800D01*
X0101743Y0029800D01*
X0098787Y0032756D01*
X0098937Y0033119D01*
X0098937Y0035481D01*
X0098033Y0037663D01*
X0096363Y0039333D01*
X0094181Y0040237D01*
X0091819Y0040237D01*
X0089637Y0039333D01*
X0087967Y0037663D01*
X0087063Y0035481D01*
X0087063Y0033119D01*
X0087967Y0030937D01*
X0089637Y0029267D01*
X0091819Y0028363D01*
X0094181Y0028363D01*
X0094544Y0028513D01*
X0097957Y0025101D01*
X0098801Y0024257D01*
X0099903Y0023800D01*
X0107816Y0023800D01*
X0107967Y0023437D01*
X0109637Y0021767D01*
X0111819Y0020863D01*
X0114181Y0020863D01*
X0116363Y0021767D01*
X0114469Y0020982D02*
X0151531Y0020982D01*
X0151819Y0020863D02*
X0154181Y0020863D01*
X0156363Y0021767D01*
X0158033Y0023437D01*
X0158937Y0025619D01*
X0158937Y0027981D01*
X0158033Y0030163D01*
X0156500Y0031696D01*
X0156500Y0063350D01*
X0161017Y0058833D01*
X0162304Y0058300D01*
X0203696Y0058300D01*
X0204983Y0058833D01*
X0205967Y0059817D01*
X0209450Y0063300D01*
X0212657Y0063300D01*
X0212657Y0062063D01*
X0217225Y0062063D01*
X0217225Y0060513D01*
X0218775Y0060513D01*
X0218775Y0056339D01*
X0221780Y0056339D01*
X0222238Y0056461D01*
X0222649Y0056698D01*
X0222984Y0057033D01*
X0223221Y0057444D01*
X0223343Y0057902D01*
X0223343Y0060513D01*
X0218775Y0060513D01*
X0218775Y0062063D01*
X0223343Y0062063D01*
X0223343Y0063300D01*
X0228696Y0063300D01*
X0229983Y0063833D01*
X0230967Y0064817D01*
X0231500Y0066104D01*
X0231500Y0092496D01*
X0230967Y0093783D01*
X0225351Y0099398D01*
X0230647Y0099398D01*
X0242339Y0087707D01*
X0242339Y0082428D01*
X0243510Y0081257D01*
X0251466Y0081257D01*
X0252638Y0082428D01*
X0252638Y0091172D01*
X0251466Y0092343D01*
X0246188Y0092343D01*
X0233589Y0104942D01*
X0232487Y0105398D01*
X0223549Y0105398D01*
X0223549Y0106376D01*
X0222378Y0107548D01*
X0213654Y0107548D01*
X0199764Y0114279D01*
X0199699Y0114343D01*
X0199229Y0114538D01*
X0198771Y0114760D01*
X0198681Y0114765D01*
X0198597Y0114800D01*
X0198088Y0114800D01*
X0197580Y0114830D01*
X0197494Y0114800D01*
X0177403Y0114800D01*
X0176301Y0114343D01*
X0171301Y0109343D01*
X0170457Y0108499D01*
X0170000Y0107397D01*
X0170000Y0084800D01*
X0164243Y0084800D01*
X0158787Y0090256D01*
X0158937Y0090619D01*
X0158937Y0092981D01*
X0158033Y0095163D01*
X0156363Y0096833D01*
X0156083Y0096949D01*
X0156737Y0097424D01*
X0157376Y0098063D01*
X0157907Y0098793D01*
X0158317Y0099598D01*
X0158596Y0100457D01*
X0158737Y0101348D01*
X0158737Y0101800D01*
X0158737Y0102252D01*
X0158596Y0103143D01*
X0158317Y0104002D01*
X0157907Y0104807D01*
X0157376Y0105537D01*
X0156737Y0106176D01*
X0156007Y0106707D01*
X0155202Y0107117D01*
X0154343Y0107396D01*
X0153452Y0107537D01*
X0153000Y0107537D01*
X0153000Y0101800D01*
X0153000Y0101800D01*
X0158737Y0101800D01*
X0153000Y0101800D01*
X0153000Y0101800D01*
X0153000Y0101800D01*
X0147263Y0101800D01*
X0147263Y0102252D01*
X0147404Y0103143D01*
X0147683Y0104002D01*
X0148093Y0104807D01*
X0148624Y0105537D01*
X0149263Y0106176D01*
X0149993Y0106707D01*
X0150798Y0107117D01*
X0151657Y0107396D01*
X0152548Y0107537D01*
X0153000Y0107537D01*
X0153000Y0101800D01*
X0147263Y0101800D01*
X0147263Y0101348D01*
X0147404Y0100457D01*
X0147683Y0099598D01*
X0148093Y0098793D01*
X0148624Y0098063D01*
X0149263Y0097424D01*
X0149917Y0096949D01*
X0149637Y0096833D01*
X0147967Y0095163D01*
X0147063Y0092981D01*
X0147063Y0090619D01*
X0147967Y0088437D01*
X0149604Y0086800D01*
X0147967Y0085163D01*
X0147816Y0084800D01*
X0139243Y0084800D01*
X0136000Y0088043D01*
X0136000Y0096457D01*
X0137737Y0096457D01*
X0137737Y0101025D01*
X0139287Y0101025D01*
X0139287Y0102575D01*
X0143461Y0102575D01*
X0143461Y0105580D01*
X0143339Y0106038D01*
X0143102Y0106449D01*
X0142767Y0106784D01*
X0142356Y0107021D01*
X0141898Y0107143D01*
X0139287Y0107143D01*
X0139287Y0102575D01*
X0137737Y0102575D01*
X0137737Y0107143D01*
X0136000Y0107143D01*
X0136000Y0115892D01*
X0144606Y0128800D01*
X0197703Y0128800D01*
X0197997Y0128741D01*
X0198294Y0128800D01*
X0198597Y0128800D01*
X0198874Y0128915D01*
X0199168Y0128973D01*
X0199420Y0129141D01*
X0199699Y0129257D01*
X0199911Y0129469D01*
X0214420Y0139141D01*
X0214699Y0139257D01*
X0214911Y0139469D01*
X0215161Y0139635D01*
X0215329Y0139886D01*
X0215543Y0140101D01*
X0215658Y0140378D01*
X0215825Y0140627D01*
X0215884Y0140923D01*
X0216000Y0141203D01*
X0216000Y0141503D01*
X0216059Y0141797D01*
X0216000Y0142094D01*
X0216000Y0151251D01*
X0217576Y0151251D01*
X0218748Y0152422D01*
X0218748Y0153800D01*
X0222339Y0153800D01*
X0222339Y0152428D01*
X0223510Y0151257D01*
X0228214Y0151257D01*
X0224858Y0147901D01*
X0224630Y0147349D01*
X0223424Y0147349D01*
X0222252Y0146178D01*
X0222252Y0137422D01*
X0223424Y0136251D01*
X0224488Y0136251D01*
X0224488Y0132343D01*
X0223510Y0132343D01*
X0222339Y0131172D01*
X0222339Y0122428D01*
X0223510Y0121257D01*
X0231466Y0121257D01*
X0232638Y0122428D01*
X0232638Y0131172D01*
X0232509Y0131300D01*
X0233836Y0131300D01*
X0233685Y0131038D01*
X0233562Y0130580D01*
X0233562Y0127575D01*
X0237737Y0127575D01*
X0237737Y0126025D01*
X0239287Y0126025D01*
X0239287Y0121457D01*
X0241898Y0121457D01*
X0242356Y0121579D01*
X0242767Y0121816D01*
X0242812Y0121862D01*
X0243622Y0121052D01*
X0252378Y0121052D01*
X0253389Y0122063D01*
X0257225Y0122063D01*
X0257225Y0120513D01*
X0258775Y0120513D01*
X0258775Y0116339D01*
X0261780Y0116339D01*
X0262238Y0116461D01*
X0262649Y0116698D01*
X0262984Y0117033D01*
X0263221Y0117444D01*
X0263343Y0117902D01*
X0263343Y0120513D01*
X0258775Y0120513D01*
X0258775Y0122063D01*
X0263343Y0122063D01*
X0263343Y0124675D01*
X0263221Y0125133D01*
X0262984Y0125543D01*
X0262649Y0125878D01*
X0262238Y0126115D01*
X0261780Y0126238D01*
X0258775Y0126238D01*
X0258775Y0122063D01*
X0257225Y0122063D01*
X0257225Y0126238D01*
X0254220Y0126238D01*
X0253762Y0126115D01*
X0253549Y0125992D01*
X0253549Y0127241D01*
X0253628Y0127162D01*
X0262372Y0127162D01*
X0263543Y0128334D01*
X0263543Y0136290D01*
X0262372Y0137461D01*
X0261000Y0137461D01*
X0261000Y0151457D01*
X0262737Y0151457D01*
X0262737Y0156025D01*
X0264287Y0156025D01*
X0264287Y0157575D01*
X0268461Y0157575D01*
X0268461Y0160580D01*
X0268339Y0161038D01*
X0268102Y0161449D01*
X0267767Y0161784D01*
X0267356Y0162021D01*
X0266898Y0162143D01*
X0264287Y0162143D01*
X0264287Y0157575D01*
X0262737Y0157575D01*
X0262737Y0162143D01*
X0261000Y0162143D01*
X0261000Y0162397D01*
X0260543Y0163499D01*
X0253543Y0170499D01*
X0252699Y0171343D01*
X0251597Y0171800D01*
X0217835Y0171800D01*
X0217853Y0171810D01*
X0218188Y0172146D01*
X0218425Y0172556D01*
X0218548Y0173014D01*
X0218548Y0176025D01*
X0214373Y0176025D01*
X0214373Y0177575D01*
X0212824Y0177575D01*
X0212824Y0182149D01*
X0211000Y0182149D01*
X0211000Y0182397D01*
X0210543Y0183499D01*
X0206000Y0188043D01*
X0206000Y0191156D01*
X0206095Y0191251D01*
X0211380Y0191251D01*
X0212551Y0192422D01*
X0212551Y0201178D01*
X0211380Y0202349D01*
X0203424Y0202349D01*
X0202252Y0201178D01*
X0202252Y0195893D01*
X0201301Y0194942D01*
X0200457Y0194098D01*
X0200000Y0192995D01*
X0200000Y0189800D01*
X0197403Y0189800D01*
X0196301Y0189343D01*
X0192818Y0185860D01*
X0191515Y0186400D01*
X0184485Y0186400D01*
X0182794Y0185700D01*
X0181500Y0184406D01*
X0180800Y0182715D01*
X0180800Y0180885D01*
X0181500Y0179194D01*
X0182794Y0177900D01*
X0184485Y0177200D01*
X0189157Y0177200D01*
X0188357Y0176400D01*
X0184485Y0176400D01*
X0182794Y0175700D01*
X0181500Y0174406D01*
X0180800Y0172715D01*
X0180800Y0170885D01*
X0181500Y0169194D01*
X0182794Y0167900D01*
X0184485Y0167200D01*
X0191515Y0167200D01*
X0193206Y0167900D01*
X0194500Y0169194D01*
X0195200Y0170885D01*
X0195200Y0172715D01*
X0194751Y0173800D01*
X0197252Y0173800D01*
X0197252Y0172422D01*
X0198424Y0171251D01*
X0199402Y0171251D01*
X0199402Y0162349D01*
X0198424Y0162349D01*
X0197252Y0161178D01*
X0197252Y0152579D01*
X0195026Y0153136D01*
X0194500Y0154406D01*
X0193206Y0155700D01*
X0191515Y0156400D01*
X0184485Y0156400D01*
X0182794Y0155700D01*
X0181500Y0154406D01*
X0181000Y0153198D01*
X0181000Y0155557D01*
X0183182Y0157740D01*
X0184485Y0157200D01*
X0191515Y0157200D01*
X0193206Y0157900D01*
X0194500Y0159194D01*
X0195200Y0160885D01*
X0195200Y0162715D01*
X0194500Y0164406D01*
X0193206Y0165700D01*
X0191515Y0166400D01*
X0184485Y0166400D01*
X0182794Y0165700D01*
X0181535Y0164440D01*
X0181301Y0164343D01*
X0176301Y0159343D01*
X0175457Y0158499D01*
X0175000Y0157397D01*
X0175000Y0151203D01*
X0175457Y0150101D01*
X0180457Y0145101D01*
X0180757Y0144800D01*
X0179243Y0144800D01*
X0165543Y0158499D01*
X0164699Y0159343D01*
X0164582Y0159392D01*
X0165200Y0160885D01*
X0165200Y0162715D01*
X0164500Y0164406D01*
X0163206Y0165700D01*
X0161515Y0166400D01*
X0154485Y0166400D01*
X0152794Y0165700D01*
X0151500Y0164406D01*
X0150800Y0162715D01*
X0150800Y0160885D01*
X0151249Y0159800D01*
X0134243Y0159800D01*
X0106000Y0188043D01*
X0106000Y0196251D01*
X0112576Y0196251D01*
X0113748Y0197422D01*
X0113748Y0198863D01*
X0114699Y0199257D01*
X0119243Y0203800D01*
X0122618Y0203800D01*
X0122404Y0203143D01*
X0122263Y0202252D01*
X0122263Y0201886D01*
X0127914Y0201886D01*
X0127914Y0201714D01*
X0128086Y0201714D01*
X0128086Y0201886D01*
X0137914Y0201886D01*
X0137914Y0201714D01*
X0132263Y0201714D01*
X0128086Y0201714D01*
X0128086Y0196063D01*
X0128452Y0196063D01*
X0129343Y0196204D01*
X0130202Y0196483D01*
X0131007Y0196893D01*
X0131737Y0197424D01*
X0132376Y0198063D01*
X0132907Y0198793D01*
X0133000Y0198976D01*
X0133093Y0198793D01*
X0133624Y0198063D01*
X0134263Y0197424D01*
X0134993Y0196893D01*
X0135798Y0196483D01*
X0136657Y0196204D01*
X0137548Y0196063D01*
X0137914Y0196063D01*
X0137914Y0201714D01*
X0138086Y0201714D01*
X0138086Y0201886D01*
X0143672Y0201886D01*
X0150457Y0195101D01*
X0151301Y0194257D01*
X0151418Y0194208D01*
X0150800Y0192715D01*
X0150800Y0190885D01*
X0151500Y0189194D01*
X0152794Y0187900D01*
X0154485Y0187200D01*
X0161515Y0187200D01*
X0163206Y0187900D01*
X0164500Y0189194D01*
X0165200Y0190885D01*
X0165200Y0192715D01*
X0164751Y0193800D01*
X0168597Y0193800D01*
X0169699Y0194257D01*
X0174699Y0199257D01*
X0175543Y0200101D01*
X0176000Y0201203D01*
X0176000Y0222397D01*
X0175543Y0223499D01*
X0170243Y0228800D01*
X0206757Y0228800D01*
X0221055Y0214502D01*
X0221899Y0213658D01*
X0223002Y0213202D01*
X0227451Y0213202D01*
X0227451Y0212224D01*
X0227921Y0211754D01*
X0227457Y0211290D01*
X0227457Y0203334D01*
X0228628Y0202162D01*
X0237372Y0202162D01*
X0238040Y0202831D01*
X0238622Y0202249D01*
X0247378Y0202249D01*
X0248549Y0203420D01*
X0248549Y0203800D01*
X0251757Y0203800D01*
X0256356Y0199202D01*
X0248549Y0199202D01*
X0248549Y0200180D01*
X0247378Y0201351D01*
X0238622Y0201351D01*
X0238040Y0200769D01*
X0237372Y0201438D01*
X0228628Y0201438D01*
X0227457Y0200266D01*
X0227457Y0199288D01*
X0223748Y0199288D01*
X0223748Y0201178D01*
X0222576Y0202349D01*
X0214620Y0202349D01*
X0213449Y0201178D01*
X0213449Y0192422D01*
X0214620Y0191251D01*
X0222576Y0191251D01*
X0223748Y0192422D01*
X0223748Y0193288D01*
X0227457Y0193288D01*
X0227457Y0192310D01*
X0228628Y0191139D01*
X0237372Y0191139D01*
X0237954Y0191721D01*
X0238622Y0191052D01*
X0247378Y0191052D01*
X0248549Y0192224D01*
X0248549Y0193202D01*
X0257356Y0193202D01*
X0259357Y0191200D01*
X0258000Y0191200D01*
X0258000Y0186800D01*
X0258000Y0186800D01*
X0258000Y0182400D01*
X0259595Y0182400D01*
X0258400Y0181205D01*
X0258400Y0177395D01*
X0261095Y0174700D01*
X0264905Y0174700D01*
X0267600Y0177395D01*
X0267600Y0181205D01*
X0266605Y0182200D01*
X0269905Y0182200D01*
X0272600Y0184895D01*
X0272600Y0188705D01*
X0271000Y0190305D01*
X0271000Y0192397D01*
X0270543Y0193499D01*
X0269699Y0194343D01*
X0254699Y0209343D01*
X0253597Y0209800D01*
X0248549Y0209800D01*
X0248549Y0211376D01*
X0247378Y0212548D01*
X0238622Y0212548D01*
X0238549Y0212475D01*
X0238549Y0220180D01*
X0237378Y0221351D01*
X0228622Y0221351D01*
X0227451Y0220180D01*
X0227451Y0219202D01*
X0224841Y0219202D01*
X0210743Y0233300D01*
X0211550Y0233300D01*
X0220419Y0224431D01*
X0221705Y0223898D01*
X0227451Y0223898D01*
X0227451Y0223420D01*
X0228622Y0222249D01*
X0237378Y0222249D01*
X0238549Y0223420D01*
X0238549Y0231376D01*
X0237378Y0232548D01*
X0228622Y0232548D01*
X0227451Y0231376D01*
X0227451Y0230898D01*
X0223851Y0230898D01*
X0217789Y0236961D01*
X0266000Y0236961D01*
X0266000Y0233901D01*
X0270101Y0229800D01*
X0274401Y0229800D01*
X0274401Y0013800D01*
X0270101Y0013800D01*
X0266000Y0009699D01*
X0266000Y0006600D01*
X0124385Y0006600D01*
X0125000Y0007215D01*
X0125000Y0013391D01*
X0123653Y0014738D01*
X0122585Y0015805D01*
X0118545Y0015805D01*
X0117728Y0014989D01*
X0116808Y0014069D01*
X0116419Y0014458D01*
X0115072Y0015805D01*
X0113167Y0015805D01*
X0111430Y0014069D01*
X0111041Y0014458D01*
X0109694Y0015805D01*
X0105654Y0015805D01*
X0104860Y0015012D01*
X0104586Y0014738D01*
X0104451Y0014603D01*
X0103249Y0015805D01*
X0099208Y0015805D01*
X0098539Y0015137D01*
X0097871Y0015805D01*
X0091695Y0015805D01*
X0091560Y0015671D01*
X0091425Y0015805D01*
X0089520Y0015805D01*
X0088337Y0014623D01*
X0087155Y0015805D01*
X0085250Y0015805D01*
X0084047Y0014603D01*
X0082845Y0015805D01*
X0080939Y0015805D01*
X0077457Y0012323D01*
X0077457Y0006600D01*
X0015000Y0006600D01*
X0015000Y0009699D01*
X0010899Y0013800D01*
X0007800Y0013800D01*
X0007800Y0229800D01*
X0010899Y0229800D01*
X0015000Y0233901D01*
X0015000Y0236961D01*
X0098211Y0236961D01*
X0096017Y0234767D01*
X0095033Y0233783D01*
X0094500Y0232496D01*
X0094500Y0217349D01*
X0093424Y0217349D01*
X0092252Y0216178D01*
X0092252Y0215300D01*
X0081500Y0215300D01*
X0081500Y0217496D01*
X0080967Y0218783D01*
X0079983Y0219767D01*
X0074983Y0224767D01*
X0073696Y0225300D01*
X0052304Y0225300D01*
X0051017Y0224767D01*
X0050033Y0223783D01*
X0045033Y0218783D01*
X0044500Y0217496D01*
X0044500Y0217149D01*
X0043176Y0217149D01*
X0043176Y0212575D01*
X0041627Y0212575D01*
X0041627Y0217149D01*
X0039015Y0217149D01*
X0038557Y0217027D01*
X0038147Y0216790D01*
X0037812Y0216454D01*
X0037575Y0216044D01*
X0037452Y0215586D01*
X0037452Y0212575D01*
X0041627Y0212575D01*
X0041627Y0211025D01*
X0043176Y0211025D01*
X0043176Y0206451D01*
X0044500Y0206451D01*
X0044500Y0103250D01*
X0037533Y0096283D01*
X0037000Y0094996D01*
X0037000Y0083604D01*
X0037533Y0082317D01*
X0038517Y0081333D01*
X0043517Y0076333D01*
X0044804Y0075800D01*
X0046196Y0075800D01*
X0047403Y0076300D01*
X0048597Y0076300D01*
X0049804Y0075800D01*
X0051196Y0075800D01*
X0052483Y0076333D01*
X0060967Y0084817D01*
X0061500Y0086104D01*
X0061500Y0120350D01*
X0062295Y0121145D01*
X0062404Y0120457D01*
X0062683Y0119598D01*
X0063093Y0118793D01*
X0063624Y0118063D01*
X0064263Y0117424D01*
X0064993Y0116893D01*
X0065798Y0116483D01*
X0066657Y0116204D01*
X0067548Y0116063D01*
X0068000Y0116063D01*
X0068452Y0116063D01*
X0069343Y0116204D01*
X0070202Y0116483D01*
X0071007Y0116893D01*
X0071737Y0117424D01*
X0072376Y0118063D01*
X0072907Y0118793D01*
X0073317Y0119598D01*
X0073596Y0120457D01*
X0073737Y0121348D01*
X0073737Y0121800D01*
X0073737Y0122252D01*
X0073596Y0123143D01*
X0073317Y0124002D01*
X0072907Y0124807D01*
X0072376Y0125537D01*
X0071737Y0126176D01*
X0071083Y0126651D01*
X0071363Y0126767D01*
X0073033Y0128437D01*
X0073937Y0130619D01*
X0073937Y0132787D01*
X0079450Y0138300D01*
X0124500Y0138300D01*
X0124500Y0107343D01*
X0123510Y0107343D01*
X0122339Y0106172D01*
X0122339Y0097428D01*
X0123510Y0096257D01*
X0124500Y0096257D01*
X0124500Y0076104D01*
X0125033Y0074817D01*
X0126017Y0073833D01*
X0131017Y0068833D01*
X0132304Y0068300D01*
X0148104Y0068300D01*
X0149500Y0066904D01*
X0149500Y0031696D01*
X0147967Y0030163D01*
X0147063Y0027981D01*
X0147063Y0025619D01*
X0147967Y0023437D01*
X0149637Y0021767D01*
X0151819Y0020863D01*
X0154469Y0020982D02*
X0274401Y0020982D01*
X0274401Y0019384D02*
X0007800Y0019384D01*
X0007800Y0020982D02*
X0111531Y0020982D01*
X0108823Y0022581D02*
X0007800Y0022581D01*
X0007800Y0024179D02*
X0098988Y0024179D01*
X0097280Y0025778D02*
X0007800Y0025778D01*
X0007800Y0027376D02*
X0095681Y0027376D01*
X0090342Y0028975D02*
X0075176Y0028975D01*
X0075202Y0028983D02*
X0076007Y0029393D01*
X0076737Y0029924D01*
X0077376Y0030563D01*
X0077907Y0031293D01*
X0078317Y0032098D01*
X0078596Y0032957D01*
X0078737Y0033848D01*
X0078737Y0033919D01*
X0073381Y0033919D01*
X0073381Y0034681D01*
X0072619Y0034681D01*
X0072619Y0033919D01*
X0067263Y0033919D01*
X0067263Y0033848D01*
X0067404Y0032957D01*
X0067683Y0032098D01*
X0068093Y0031293D01*
X0068624Y0030563D01*
X0069263Y0029924D01*
X0069993Y0029393D01*
X0070798Y0028983D01*
X0071657Y0028704D01*
X0072548Y0028563D01*
X0072619Y0028563D01*
X0072619Y0033919D01*
X0073381Y0033919D01*
X0073381Y0028563D01*
X0073452Y0028563D01*
X0074343Y0028704D01*
X0075202Y0028983D01*
X0073381Y0028975D02*
X0072619Y0028975D01*
X0072619Y0030573D02*
X0073381Y0030573D01*
X0073381Y0032172D02*
X0072619Y0032172D01*
X0072619Y0033770D02*
X0073381Y0033770D01*
X0073381Y0034681D02*
X0078737Y0034681D01*
X0078737Y0034752D01*
X0078596Y0035643D01*
X0078317Y0036502D01*
X0077907Y0037307D01*
X0077376Y0038037D01*
X0076737Y0038676D01*
X0076007Y0039207D01*
X0075202Y0039617D01*
X0074343Y0039896D01*
X0073452Y0040037D01*
X0073381Y0040037D01*
X0073381Y0034681D01*
X0073381Y0035369D02*
X0072619Y0035369D01*
X0072619Y0034681D02*
X0072619Y0040037D01*
X0072548Y0040037D01*
X0071657Y0039896D01*
X0070798Y0039617D01*
X0069993Y0039207D01*
X0069263Y0038676D01*
X0068624Y0038037D01*
X0068093Y0037307D01*
X0067683Y0036502D01*
X0067404Y0035643D01*
X0067263Y0034752D01*
X0067263Y0034681D01*
X0072619Y0034681D01*
X0072619Y0036967D02*
X0073381Y0036967D01*
X0073381Y0038566D02*
X0072619Y0038566D01*
X0076848Y0038566D02*
X0088870Y0038566D01*
X0087679Y0036967D02*
X0078080Y0036967D01*
X0078639Y0035369D02*
X0087063Y0035369D01*
X0087063Y0033770D02*
X0078725Y0033770D01*
X0078341Y0032172D02*
X0087455Y0032172D01*
X0088331Y0030573D02*
X0077384Y0030573D01*
X0070824Y0028975D02*
X0007800Y0028975D01*
X0007800Y0030573D02*
X0068616Y0030573D01*
X0067659Y0032172D02*
X0051768Y0032172D01*
X0051363Y0031767D02*
X0053033Y0033437D01*
X0053937Y0035619D01*
X0053937Y0037981D01*
X0053545Y0038928D01*
X0060239Y0047296D01*
X0060543Y0047601D01*
X0060609Y0047758D01*
X0060715Y0047892D01*
X0060835Y0048305D01*
X0061000Y0048703D01*
X0061000Y0048874D01*
X0061048Y0049038D01*
X0061000Y0049466D01*
X0061000Y0061616D01*
X0061363Y0061767D01*
X0063033Y0063437D01*
X0063937Y0065619D01*
X0063937Y0067981D01*
X0063033Y0070163D01*
X0061363Y0071833D01*
X0059181Y0072737D01*
X0056819Y0072737D01*
X0054637Y0071833D01*
X0052967Y0070163D01*
X0052063Y0067981D01*
X0052063Y0065619D01*
X0052967Y0063437D01*
X0054637Y0061767D01*
X0055000Y0061616D01*
X0055000Y0050352D01*
X0048908Y0042737D01*
X0046819Y0042737D01*
X0044637Y0041833D01*
X0042967Y0040163D01*
X0042063Y0037981D01*
X0042063Y0035619D01*
X0042967Y0033437D01*
X0044637Y0031767D01*
X0046819Y0030863D01*
X0049181Y0030863D01*
X0051363Y0031767D01*
X0053171Y0033770D02*
X0067275Y0033770D01*
X0067361Y0035369D02*
X0053833Y0035369D01*
X0053937Y0036967D02*
X0067920Y0036967D01*
X0069152Y0038566D02*
X0053695Y0038566D01*
X0054533Y0040164D02*
X0091643Y0040164D01*
X0094357Y0040164D02*
X0149500Y0040164D01*
X0149500Y0038566D02*
X0097130Y0038566D01*
X0098321Y0036967D02*
X0149500Y0036967D01*
X0149500Y0035369D02*
X0098937Y0035369D01*
X0098937Y0033770D02*
X0149500Y0033770D01*
X0149500Y0032172D02*
X0115546Y0032172D01*
X0117623Y0030573D02*
X0148377Y0030573D01*
X0147475Y0028975D02*
X0118525Y0028975D01*
X0118937Y0027376D02*
X0147063Y0027376D01*
X0147063Y0025778D02*
X0118937Y0025778D01*
X0118341Y0024179D02*
X0147659Y0024179D01*
X0157177Y0022581D02*
X0274401Y0022581D01*
X0274401Y0024179D02*
X0158341Y0024179D01*
X0158937Y0025778D02*
X0274401Y0025778D01*
X0274401Y0027376D02*
X0158937Y0027376D01*
X0158525Y0028975D02*
X0274401Y0028975D01*
X0274401Y0030573D02*
X0157623Y0030573D01*
X0156500Y0032172D02*
X0274401Y0032172D01*
X0274401Y0033770D02*
X0156500Y0033770D01*
X0156500Y0035369D02*
X0274401Y0035369D01*
X0274401Y0036967D02*
X0156500Y0036967D01*
X0156500Y0038566D02*
X0274401Y0038566D01*
X0274401Y0040164D02*
X0156500Y0040164D01*
X0156500Y0041763D02*
X0274401Y0041763D01*
X0274401Y0043361D02*
X0156500Y0043361D01*
X0156500Y0044960D02*
X0274401Y0044960D01*
X0274401Y0046558D02*
X0156500Y0046558D01*
X0156500Y0048157D02*
X0274401Y0048157D01*
X0274401Y0049755D02*
X0156500Y0049755D01*
X0156500Y0051354D02*
X0274401Y0051354D01*
X0274401Y0052952D02*
X0156500Y0052952D01*
X0156500Y0054551D02*
X0274401Y0054551D01*
X0274401Y0056149D02*
X0156500Y0056149D01*
X0156500Y0057748D02*
X0212698Y0057748D01*
X0212657Y0057902D02*
X0212779Y0057444D01*
X0213016Y0057033D01*
X0213351Y0056698D01*
X0213762Y0056461D01*
X0214220Y0056339D01*
X0217225Y0056339D01*
X0217225Y0060513D01*
X0212657Y0060513D01*
X0212657Y0057902D01*
X0212657Y0059346D02*
X0205496Y0059346D01*
X0207095Y0060945D02*
X0217225Y0060945D01*
X0218775Y0060945D02*
X0274401Y0060945D01*
X0274401Y0062543D02*
X0223343Y0062543D01*
X0223343Y0059346D02*
X0274401Y0059346D01*
X0274401Y0057748D02*
X0223302Y0057748D01*
X0218775Y0057748D02*
X0217225Y0057748D01*
X0217225Y0059346D02*
X0218775Y0059346D01*
X0212657Y0062543D02*
X0208693Y0062543D01*
X0230292Y0064142D02*
X0274401Y0064142D01*
X0274401Y0065740D02*
X0231349Y0065740D01*
X0231500Y0067339D02*
X0274401Y0067339D01*
X0274401Y0068937D02*
X0231500Y0068937D01*
X0231500Y0070536D02*
X0274401Y0070536D01*
X0274401Y0072134D02*
X0231500Y0072134D01*
X0231500Y0073733D02*
X0274401Y0073733D01*
X0274401Y0075332D02*
X0231500Y0075332D01*
X0231500Y0076930D02*
X0274401Y0076930D01*
X0274401Y0078529D02*
X0231500Y0078529D01*
X0231500Y0080127D02*
X0274401Y0080127D01*
X0274401Y0081726D02*
X0262609Y0081726D01*
X0262767Y0081816D02*
X0263102Y0082151D01*
X0263339Y0082562D01*
X0263461Y0083020D01*
X0263461Y0086025D01*
X0259287Y0086025D01*
X0259287Y0087575D01*
X0263461Y0087575D01*
X0263461Y0090580D01*
X0263339Y0091038D01*
X0263102Y0091449D01*
X0262767Y0091784D01*
X0262356Y0092021D01*
X0261898Y0092143D01*
X0259287Y0092143D01*
X0259287Y0087575D01*
X0257737Y0087575D01*
X0257737Y0092143D01*
X0255125Y0092143D01*
X0254667Y0092021D01*
X0254257Y0091784D01*
X0253922Y0091449D01*
X0253685Y0091038D01*
X0253562Y0090580D01*
X0253562Y0087575D01*
X0257737Y0087575D01*
X0257737Y0086025D01*
X0259287Y0086025D01*
X0259287Y0081457D01*
X0261898Y0081457D01*
X0262356Y0081579D01*
X0262767Y0081816D01*
X0263461Y0083324D02*
X0274401Y0083324D01*
X0274401Y0084923D02*
X0263461Y0084923D01*
X0263461Y0088120D02*
X0274401Y0088120D01*
X0274401Y0089718D02*
X0263461Y0089718D01*
X0263178Y0091317D02*
X0274401Y0091317D01*
X0274401Y0092915D02*
X0245616Y0092915D01*
X0244017Y0094514D02*
X0274401Y0094514D01*
X0274401Y0096112D02*
X0242419Y0096112D01*
X0240820Y0097711D02*
X0274401Y0097711D01*
X0274401Y0099309D02*
X0239222Y0099309D01*
X0237623Y0100908D02*
X0274401Y0100908D01*
X0274401Y0102506D02*
X0236025Y0102506D01*
X0234426Y0104105D02*
X0274401Y0104105D01*
X0274401Y0105703D02*
X0223549Y0105703D01*
X0222624Y0107302D02*
X0274401Y0107302D01*
X0274401Y0108900D02*
X0210864Y0108900D01*
X0207565Y0110499D02*
X0274401Y0110499D01*
X0274401Y0112097D02*
X0204266Y0112097D01*
X0200967Y0113696D02*
X0274401Y0113696D01*
X0274401Y0115294D02*
X0136000Y0115294D01*
X0136000Y0113696D02*
X0175653Y0113696D01*
X0174055Y0112097D02*
X0136000Y0112097D01*
X0136000Y0110499D02*
X0172456Y0110499D01*
X0170858Y0108900D02*
X0136000Y0108900D01*
X0136000Y0107302D02*
X0151367Y0107302D01*
X0153000Y0107302D02*
X0153000Y0107302D01*
X0153000Y0105703D02*
X0153000Y0105703D01*
X0153000Y0104105D02*
X0153000Y0104105D01*
X0153000Y0102506D02*
X0153000Y0102506D01*
X0147736Y0104105D02*
X0143461Y0104105D01*
X0143428Y0105703D02*
X0148790Y0105703D01*
X0147303Y0102506D02*
X0139287Y0102506D01*
X0139287Y0101025D02*
X0143461Y0101025D01*
X0143461Y0098020D01*
X0143339Y0097562D01*
X0143102Y0097151D01*
X0142767Y0096816D01*
X0142356Y0096579D01*
X0141898Y0096457D01*
X0139287Y0096457D01*
X0139287Y0101025D01*
X0139287Y0100908D02*
X0137737Y0100908D01*
X0137737Y0099309D02*
X0139287Y0099309D01*
X0139287Y0097711D02*
X0137737Y0097711D01*
X0136000Y0096112D02*
X0148916Y0096112D01*
X0148976Y0097711D02*
X0143379Y0097711D01*
X0143461Y0099309D02*
X0147830Y0099309D01*
X0147333Y0100908D02*
X0143461Y0100908D01*
X0139287Y0104105D02*
X0137737Y0104105D01*
X0137737Y0105703D02*
X0139287Y0105703D01*
X0136667Y0116893D02*
X0253157Y0116893D01*
X0253016Y0117033D02*
X0253351Y0116698D01*
X0253762Y0116461D01*
X0254220Y0116339D01*
X0257225Y0116339D01*
X0257225Y0120513D01*
X0252657Y0120513D01*
X0252657Y0117902D01*
X0252779Y0117444D01*
X0253016Y0117033D01*
X0252657Y0118491D02*
X0137733Y0118491D01*
X0138799Y0120090D02*
X0252657Y0120090D01*
X0253014Y0121688D02*
X0257225Y0121688D01*
X0258775Y0121688D02*
X0274401Y0121688D01*
X0274401Y0120090D02*
X0263343Y0120090D01*
X0263343Y0118491D02*
X0274401Y0118491D01*
X0274401Y0116893D02*
X0262843Y0116893D01*
X0258775Y0116893D02*
X0257225Y0116893D01*
X0257225Y0118491D02*
X0258775Y0118491D01*
X0258775Y0120090D02*
X0257225Y0120090D01*
X0257225Y0123287D02*
X0258775Y0123287D01*
X0258775Y0124885D02*
X0257225Y0124885D01*
X0253549Y0126484D02*
X0274401Y0126484D01*
X0274401Y0128082D02*
X0263292Y0128082D01*
X0263543Y0129681D02*
X0274401Y0129681D01*
X0274401Y0131279D02*
X0263543Y0131279D01*
X0263543Y0132878D02*
X0274401Y0132878D01*
X0274401Y0134476D02*
X0263543Y0134476D01*
X0263543Y0136075D02*
X0274401Y0136075D01*
X0274401Y0137673D02*
X0261000Y0137673D01*
X0261000Y0139272D02*
X0274401Y0139272D01*
X0274401Y0140870D02*
X0261000Y0140870D01*
X0261000Y0142469D02*
X0274401Y0142469D01*
X0274401Y0144068D02*
X0261000Y0144068D01*
X0261000Y0145666D02*
X0274401Y0145666D01*
X0274401Y0147265D02*
X0261000Y0147265D01*
X0261000Y0148863D02*
X0274401Y0148863D01*
X0274401Y0150462D02*
X0261000Y0150462D01*
X0262737Y0152060D02*
X0264287Y0152060D01*
X0264287Y0151457D02*
X0266898Y0151457D01*
X0267356Y0151579D01*
X0267767Y0151816D01*
X0268102Y0152151D01*
X0268339Y0152562D01*
X0268461Y0153020D01*
X0268461Y0156025D01*
X0264287Y0156025D01*
X0264287Y0151457D01*
X0264287Y0153659D02*
X0262737Y0153659D01*
X0262737Y0155257D02*
X0264287Y0155257D01*
X0264287Y0156856D02*
X0274401Y0156856D01*
X0274401Y0158454D02*
X0268461Y0158454D01*
X0268461Y0160053D02*
X0274401Y0160053D01*
X0274401Y0161651D02*
X0267899Y0161651D01*
X0264287Y0161651D02*
X0262737Y0161651D01*
X0262737Y0160053D02*
X0264287Y0160053D01*
X0264287Y0158454D02*
X0262737Y0158454D01*
X0260647Y0163250D02*
X0274401Y0163250D01*
X0274401Y0164848D02*
X0259194Y0164848D01*
X0257596Y0166447D02*
X0274401Y0166447D01*
X0274401Y0168045D02*
X0255997Y0168045D01*
X0254399Y0169644D02*
X0274401Y0169644D01*
X0274401Y0171242D02*
X0252800Y0171242D01*
X0259757Y0176038D02*
X0214373Y0176038D01*
X0214373Y0177575D02*
X0218548Y0177575D01*
X0218548Y0180586D01*
X0218425Y0181044D01*
X0218188Y0181454D01*
X0217853Y0181790D01*
X0217443Y0182027D01*
X0216985Y0182149D01*
X0214373Y0182149D01*
X0214373Y0177575D01*
X0214373Y0177636D02*
X0212824Y0177636D01*
X0212824Y0179235D02*
X0214373Y0179235D01*
X0214373Y0180833D02*
X0212824Y0180833D01*
X0210985Y0182432D02*
X0256146Y0182432D01*
X0256177Y0182400D02*
X0258000Y0182400D01*
X0258000Y0186800D01*
X0258000Y0186800D01*
X0258000Y0186800D01*
X0253600Y0186800D01*
X0253600Y0188623D01*
X0256177Y0191200D01*
X0258000Y0191200D01*
X0258000Y0186800D01*
X0253600Y0186800D01*
X0253600Y0184977D01*
X0256177Y0182400D01*
X0258000Y0182432D02*
X0258000Y0182432D01*
X0258000Y0184030D02*
X0258000Y0184030D01*
X0258000Y0185629D02*
X0258000Y0185629D01*
X0258000Y0187227D02*
X0258000Y0187227D01*
X0258000Y0188826D02*
X0258000Y0188826D01*
X0258000Y0190424D02*
X0258000Y0190424D01*
X0258534Y0192023D02*
X0248349Y0192023D01*
X0253803Y0188826D02*
X0206000Y0188826D01*
X0206000Y0190424D02*
X0255402Y0190424D01*
X0253600Y0187227D02*
X0206815Y0187227D01*
X0208414Y0185629D02*
X0253600Y0185629D01*
X0254547Y0184030D02*
X0210012Y0184030D01*
X0212152Y0192023D02*
X0213848Y0192023D01*
X0213449Y0193621D02*
X0212551Y0193621D01*
X0212551Y0195220D02*
X0213449Y0195220D01*
X0213449Y0196818D02*
X0212551Y0196818D01*
X0212551Y0198417D02*
X0213449Y0198417D01*
X0213449Y0200015D02*
X0212551Y0200015D01*
X0212115Y0201614D02*
X0213885Y0201614D01*
X0202688Y0201614D02*
X0195000Y0201614D01*
X0195000Y0201454D02*
X0195000Y0201800D01*
X0195000Y0202146D01*
X0194892Y0202830D01*
X0194678Y0203489D01*
X0194363Y0204106D01*
X0193956Y0204666D01*
X0193466Y0205156D01*
X0192906Y0205563D01*
X0192289Y0205878D01*
X0191630Y0206092D01*
X0190946Y0206200D01*
X0188000Y0206200D01*
X0188000Y0201800D01*
X0188000Y0201800D01*
X0195000Y0201800D01*
X0188000Y0201800D01*
X0188000Y0201800D01*
X0188000Y0206200D01*
X0185054Y0206200D01*
X0184370Y0206092D01*
X0183711Y0205878D01*
X0183094Y0205563D01*
X0182534Y0205156D01*
X0182044Y0204666D01*
X0181637Y0204106D01*
X0181322Y0203489D01*
X0181108Y0202830D01*
X0181000Y0202146D01*
X0181000Y0201800D01*
X0188000Y0201800D01*
X0188000Y0197400D01*
X0190946Y0197400D01*
X0191630Y0197508D01*
X0192289Y0197722D01*
X0192906Y0198037D01*
X0193466Y0198444D01*
X0193956Y0198934D01*
X0194363Y0199494D01*
X0194678Y0200111D01*
X0194892Y0200770D01*
X0195000Y0201454D01*
X0194629Y0200015D02*
X0202252Y0200015D01*
X0202252Y0198417D02*
X0193429Y0198417D01*
X0192289Y0195878D02*
X0191630Y0196092D01*
X0190946Y0196200D01*
X0188000Y0196200D01*
X0188000Y0191800D01*
X0188000Y0191800D01*
X0195000Y0191800D01*
X0195000Y0192146D01*
X0194892Y0192830D01*
X0194678Y0193489D01*
X0194363Y0194106D01*
X0193956Y0194666D01*
X0193466Y0195156D01*
X0192906Y0195563D01*
X0192289Y0195878D01*
X0193379Y0195220D02*
X0201579Y0195220D01*
X0202252Y0196818D02*
X0172261Y0196818D01*
X0170663Y0195220D02*
X0182621Y0195220D01*
X0182534Y0195156D02*
X0182044Y0194666D01*
X0181637Y0194106D01*
X0181322Y0193489D01*
X0181108Y0192830D01*
X0181000Y0192146D01*
X0181000Y0191800D01*
X0188000Y0191800D01*
X0188000Y0191800D01*
X0188000Y0196200D01*
X0185054Y0196200D01*
X0184370Y0196092D01*
X0183711Y0195878D01*
X0183094Y0195563D01*
X0182534Y0195156D01*
X0181390Y0193621D02*
X0164825Y0193621D01*
X0165200Y0192023D02*
X0181000Y0192023D01*
X0181000Y0191800D02*
X0181000Y0191454D01*
X0181108Y0190770D01*
X0181322Y0190111D01*
X0181637Y0189494D01*
X0182044Y0188934D01*
X0182534Y0188444D01*
X0183094Y0188037D01*
X0183711Y0187722D01*
X0184370Y0187508D01*
X0185054Y0187400D01*
X0188000Y0187400D01*
X0190946Y0187400D01*
X0191630Y0187508D01*
X0192289Y0187722D01*
X0192906Y0188037D01*
X0193466Y0188444D01*
X0193956Y0188934D01*
X0194363Y0189494D01*
X0194678Y0190111D01*
X0194892Y0190770D01*
X0195000Y0191454D01*
X0195000Y0191800D01*
X0188000Y0191800D01*
X0188000Y0187400D01*
X0188000Y0191800D01*
X0188000Y0191800D01*
X0188000Y0191800D01*
X0181000Y0191800D01*
X0181221Y0190424D02*
X0165009Y0190424D01*
X0164131Y0188826D02*
X0182152Y0188826D01*
X0182723Y0185629D02*
X0163277Y0185629D01*
X0163206Y0185700D02*
X0161515Y0186400D01*
X0154485Y0186400D01*
X0152794Y0185700D01*
X0151500Y0184406D01*
X0150800Y0182715D01*
X0150800Y0180885D01*
X0151500Y0179194D01*
X0152794Y0177900D01*
X0154485Y0177200D01*
X0161515Y0177200D01*
X0163206Y0177900D01*
X0164500Y0179194D01*
X0165200Y0180885D01*
X0165200Y0182715D01*
X0164500Y0184406D01*
X0163206Y0185700D01*
X0164655Y0184030D02*
X0181345Y0184030D01*
X0180800Y0182432D02*
X0165200Y0182432D01*
X0165179Y0180833D02*
X0180821Y0180833D01*
X0181484Y0179235D02*
X0164516Y0179235D01*
X0162568Y0177636D02*
X0183432Y0177636D01*
X0183610Y0176038D02*
X0162390Y0176038D01*
X0163206Y0175700D02*
X0161515Y0176400D01*
X0154485Y0176400D01*
X0152794Y0175700D01*
X0151500Y0174406D01*
X0150800Y0172715D01*
X0150800Y0170885D01*
X0151500Y0169194D01*
X0152794Y0167900D01*
X0154485Y0167200D01*
X0161515Y0167200D01*
X0163206Y0167900D01*
X0164500Y0169194D01*
X0165200Y0170885D01*
X0165200Y0172715D01*
X0164500Y0174406D01*
X0163206Y0175700D01*
X0164466Y0174439D02*
X0181534Y0174439D01*
X0180852Y0172841D02*
X0165148Y0172841D01*
X0165200Y0171242D02*
X0180800Y0171242D01*
X0181314Y0169644D02*
X0164686Y0169644D01*
X0163351Y0168045D02*
X0182649Y0168045D01*
X0181943Y0164848D02*
X0164057Y0164848D01*
X0164979Y0163250D02*
X0180207Y0163250D01*
X0178608Y0161651D02*
X0165200Y0161651D01*
X0164855Y0160053D02*
X0177010Y0160053D01*
X0175438Y0158454D02*
X0165589Y0158454D01*
X0167187Y0156856D02*
X0175000Y0156856D01*
X0175000Y0155257D02*
X0168786Y0155257D01*
X0170384Y0153659D02*
X0175000Y0153659D01*
X0175000Y0152060D02*
X0171983Y0152060D01*
X0173581Y0150462D02*
X0175307Y0150462D01*
X0175180Y0148863D02*
X0176694Y0148863D01*
X0176778Y0147265D02*
X0178293Y0147265D01*
X0178377Y0145666D02*
X0179891Y0145666D01*
X0180457Y0145101D02*
X0180457Y0145101D01*
X0181000Y0153659D02*
X0181191Y0153659D01*
X0181000Y0155257D02*
X0182352Y0155257D01*
X0182298Y0156856D02*
X0197252Y0156856D01*
X0197252Y0158454D02*
X0193759Y0158454D01*
X0194855Y0160053D02*
X0197252Y0160053D01*
X0197725Y0161651D02*
X0195200Y0161651D01*
X0194979Y0163250D02*
X0199402Y0163250D01*
X0199402Y0164848D02*
X0194057Y0164848D01*
X0199402Y0166447D02*
X0127596Y0166447D01*
X0125997Y0168045D02*
X0152649Y0168045D01*
X0151314Y0169644D02*
X0124399Y0169644D01*
X0122800Y0171242D02*
X0150800Y0171242D01*
X0150852Y0172841D02*
X0121202Y0172841D01*
X0119603Y0174439D02*
X0151534Y0174439D01*
X0153610Y0176038D02*
X0118005Y0176038D01*
X0116406Y0177636D02*
X0153432Y0177636D01*
X0151484Y0179235D02*
X0114808Y0179235D01*
X0113209Y0180833D02*
X0150821Y0180833D01*
X0150800Y0182432D02*
X0111611Y0182432D01*
X0110012Y0184030D02*
X0151345Y0184030D01*
X0152723Y0185629D02*
X0108414Y0185629D01*
X0106815Y0187227D02*
X0154419Y0187227D01*
X0151869Y0188826D02*
X0106000Y0188826D01*
X0106000Y0190424D02*
X0150991Y0190424D01*
X0150800Y0192023D02*
X0106000Y0192023D01*
X0106000Y0193621D02*
X0151175Y0193621D01*
X0150457Y0195101D02*
X0150457Y0195101D01*
X0150337Y0195220D02*
X0106000Y0195220D01*
X0113144Y0196818D02*
X0125140Y0196818D01*
X0124993Y0196893D02*
X0125798Y0196483D01*
X0126657Y0196204D01*
X0127548Y0196063D01*
X0127914Y0196063D01*
X0127914Y0201714D01*
X0122263Y0201714D01*
X0122263Y0201348D01*
X0122404Y0200457D01*
X0122683Y0199598D01*
X0123093Y0198793D01*
X0123624Y0198063D01*
X0124263Y0197424D01*
X0124993Y0196893D01*
X0123367Y0198417D02*
X0113748Y0198417D01*
X0115458Y0200015D02*
X0122548Y0200015D01*
X0122263Y0201614D02*
X0117057Y0201614D01*
X0118655Y0203212D02*
X0122427Y0203212D01*
X0127914Y0201614D02*
X0128086Y0201614D01*
X0128086Y0200015D02*
X0127914Y0200015D01*
X0127914Y0198417D02*
X0128086Y0198417D01*
X0128086Y0196818D02*
X0127914Y0196818D01*
X0130860Y0196818D02*
X0135140Y0196818D01*
X0133367Y0198417D02*
X0132633Y0198417D01*
X0137914Y0198417D02*
X0138086Y0198417D01*
X0138086Y0200015D02*
X0137914Y0200015D01*
X0137914Y0201614D02*
X0138086Y0201614D01*
X0138086Y0201714D02*
X0138086Y0196063D01*
X0138452Y0196063D01*
X0139343Y0196204D01*
X0140202Y0196483D01*
X0141007Y0196893D01*
X0141737Y0197424D01*
X0142376Y0198063D01*
X0142907Y0198793D01*
X0143317Y0199598D01*
X0143596Y0200457D01*
X0143737Y0201348D01*
X0143737Y0201714D01*
X0138086Y0201714D01*
X0138086Y0196818D02*
X0137914Y0196818D01*
X0140860Y0196818D02*
X0148739Y0196818D01*
X0147140Y0198417D02*
X0142633Y0198417D01*
X0143452Y0200015D02*
X0145542Y0200015D01*
X0143943Y0201614D02*
X0143737Y0201614D01*
X0161581Y0187227D02*
X0194185Y0187227D01*
X0193848Y0188826D02*
X0195783Y0188826D01*
X0194779Y0190424D02*
X0200000Y0190424D01*
X0200000Y0192023D02*
X0195000Y0192023D01*
X0194610Y0193621D02*
X0200259Y0193621D01*
X0194768Y0203212D02*
X0227578Y0203212D01*
X0227457Y0204811D02*
X0193812Y0204811D01*
X0192289Y0207722D02*
X0192906Y0208037D01*
X0193466Y0208444D01*
X0193956Y0208934D01*
X0194363Y0209494D01*
X0194678Y0210111D01*
X0194892Y0210770D01*
X0195000Y0211454D01*
X0195000Y0211800D01*
X0195000Y0212146D01*
X0194892Y0212830D01*
X0194678Y0213489D01*
X0194363Y0214106D01*
X0193956Y0214666D01*
X0193466Y0215156D01*
X0192906Y0215563D01*
X0192289Y0215878D01*
X0191630Y0216092D01*
X0190946Y0216200D01*
X0188000Y0216200D01*
X0188000Y0211800D01*
X0188000Y0211800D01*
X0195000Y0211800D01*
X0188000Y0211800D01*
X0188000Y0211800D01*
X0188000Y0216200D01*
X0185054Y0216200D01*
X0184370Y0216092D01*
X0183711Y0215878D01*
X0183094Y0215563D01*
X0182534Y0215156D01*
X0182044Y0214666D01*
X0181637Y0214106D01*
X0181322Y0213489D01*
X0181108Y0212830D01*
X0181000Y0212146D01*
X0181000Y0211800D01*
X0188000Y0211800D01*
X0188000Y0207400D01*
X0190946Y0207400D01*
X0191630Y0207508D01*
X0192289Y0207722D01*
X0192850Y0208008D02*
X0227457Y0208008D01*
X0227457Y0209606D02*
X0194421Y0209606D01*
X0194961Y0211205D02*
X0227457Y0211205D01*
X0227451Y0212803D02*
X0194896Y0212803D01*
X0194148Y0214402D02*
X0221155Y0214402D01*
X0221055Y0214502D02*
X0221055Y0214502D01*
X0219557Y0216001D02*
X0191911Y0216001D01*
X0188000Y0216001D02*
X0188000Y0216001D01*
X0188000Y0214402D02*
X0188000Y0214402D01*
X0188000Y0212803D02*
X0188000Y0212803D01*
X0188000Y0211800D02*
X0188000Y0211800D01*
X0188000Y0211800D01*
X0188000Y0207400D01*
X0185054Y0207400D01*
X0184370Y0207508D01*
X0183711Y0207722D01*
X0183094Y0208037D01*
X0182534Y0208444D01*
X0182044Y0208934D01*
X0181637Y0209494D01*
X0181322Y0210111D01*
X0181108Y0210770D01*
X0181000Y0211454D01*
X0181000Y0211800D01*
X0188000Y0211800D01*
X0188000Y0211205D02*
X0188000Y0211205D01*
X0188000Y0209606D02*
X0188000Y0209606D01*
X0188000Y0208008D02*
X0188000Y0208008D01*
X0188000Y0204811D02*
X0188000Y0204811D01*
X0188000Y0203212D02*
X0188000Y0203212D01*
X0188000Y0201800D02*
X0188000Y0201800D01*
X0188000Y0201800D01*
X0188000Y0197400D01*
X0185054Y0197400D01*
X0184370Y0197508D01*
X0183711Y0197722D01*
X0183094Y0198037D01*
X0182534Y0198444D01*
X0182044Y0198934D01*
X0181637Y0199494D01*
X0181322Y0200111D01*
X0181108Y0200770D01*
X0181000Y0201454D01*
X0181000Y0201800D01*
X0188000Y0201800D01*
X0188000Y0201614D02*
X0188000Y0201614D01*
X0188000Y0200015D02*
X0188000Y0200015D01*
X0188000Y0198417D02*
X0188000Y0198417D01*
X0188000Y0195220D02*
X0188000Y0195220D01*
X0188000Y0193621D02*
X0188000Y0193621D01*
X0188000Y0192023D02*
X0188000Y0192023D01*
X0188000Y0190424D02*
X0188000Y0190424D01*
X0188000Y0188826D02*
X0188000Y0188826D01*
X0182571Y0198417D02*
X0173860Y0198417D01*
X0175458Y0200015D02*
X0181371Y0200015D01*
X0181000Y0201614D02*
X0176000Y0201614D01*
X0176000Y0203212D02*
X0181232Y0203212D01*
X0182188Y0204811D02*
X0176000Y0204811D01*
X0176000Y0206409D02*
X0227457Y0206409D01*
X0223312Y0201614D02*
X0253943Y0201614D01*
X0252345Y0203212D02*
X0248341Y0203212D01*
X0248549Y0200015D02*
X0255542Y0200015D01*
X0259232Y0204811D02*
X0274401Y0204811D01*
X0274401Y0206409D02*
X0257633Y0206409D01*
X0256035Y0208008D02*
X0274401Y0208008D01*
X0274401Y0209606D02*
X0254064Y0209606D01*
X0248549Y0211205D02*
X0274401Y0211205D01*
X0274401Y0212803D02*
X0238549Y0212803D01*
X0238549Y0214402D02*
X0274401Y0214402D01*
X0274401Y0216001D02*
X0238549Y0216001D01*
X0238549Y0217599D02*
X0274401Y0217599D01*
X0274401Y0219198D02*
X0238549Y0219198D01*
X0237933Y0220796D02*
X0274401Y0220796D01*
X0274401Y0222395D02*
X0237523Y0222395D01*
X0238549Y0223993D02*
X0274401Y0223993D01*
X0274401Y0225592D02*
X0238549Y0225592D01*
X0238549Y0227190D02*
X0274401Y0227190D01*
X0274401Y0228789D02*
X0238549Y0228789D01*
X0238549Y0230387D02*
X0269513Y0230387D01*
X0267915Y0231986D02*
X0237940Y0231986D01*
X0228060Y0231986D02*
X0222764Y0231986D01*
X0221166Y0233584D02*
X0266316Y0233584D01*
X0266000Y0235183D02*
X0219567Y0235183D01*
X0217969Y0236781D02*
X0266000Y0236781D01*
X0260830Y0203212D02*
X0274401Y0203212D01*
X0274401Y0201614D02*
X0262429Y0201614D01*
X0264027Y0200015D02*
X0274401Y0200015D01*
X0274401Y0198417D02*
X0265626Y0198417D01*
X0267224Y0196818D02*
X0274401Y0196818D01*
X0274401Y0195220D02*
X0268823Y0195220D01*
X0270421Y0193621D02*
X0274401Y0193621D01*
X0274401Y0192023D02*
X0271000Y0192023D01*
X0271000Y0190424D02*
X0274401Y0190424D01*
X0274401Y0188826D02*
X0272480Y0188826D01*
X0272600Y0187227D02*
X0274401Y0187227D01*
X0274401Y0185629D02*
X0272600Y0185629D01*
X0271736Y0184030D02*
X0274401Y0184030D01*
X0274401Y0182432D02*
X0270137Y0182432D01*
X0267600Y0180833D02*
X0274401Y0180833D01*
X0274401Y0179235D02*
X0267600Y0179235D01*
X0267600Y0177636D02*
X0274401Y0177636D01*
X0274401Y0176038D02*
X0266243Y0176038D01*
X0274401Y0174439D02*
X0218548Y0174439D01*
X0218502Y0172841D02*
X0274401Y0172841D01*
X0258400Y0177636D02*
X0218548Y0177636D01*
X0218548Y0179235D02*
X0258400Y0179235D01*
X0258400Y0180833D02*
X0218482Y0180833D01*
X0223349Y0192023D02*
X0227744Y0192023D01*
X0227457Y0200015D02*
X0223748Y0200015D01*
X0217958Y0217599D02*
X0176000Y0217599D01*
X0176000Y0216001D02*
X0184089Y0216001D01*
X0181852Y0214402D02*
X0176000Y0214402D01*
X0176000Y0212803D02*
X0181104Y0212803D01*
X0181039Y0211205D02*
X0176000Y0211205D01*
X0176000Y0209606D02*
X0181579Y0209606D01*
X0183150Y0208008D02*
X0176000Y0208008D01*
X0176000Y0219198D02*
X0216360Y0219198D01*
X0214761Y0220796D02*
X0176000Y0220796D01*
X0176000Y0222395D02*
X0213163Y0222395D01*
X0211564Y0223993D02*
X0175050Y0223993D01*
X0173451Y0225592D02*
X0209966Y0225592D01*
X0208367Y0227190D02*
X0171853Y0227190D01*
X0170254Y0228789D02*
X0206769Y0228789D01*
X0212057Y0231986D02*
X0212865Y0231986D01*
X0213655Y0230387D02*
X0214463Y0230387D01*
X0215254Y0228789D02*
X0216062Y0228789D01*
X0216853Y0227190D02*
X0217660Y0227190D01*
X0218451Y0225592D02*
X0219259Y0225592D01*
X0220050Y0223993D02*
X0221477Y0223993D01*
X0221648Y0222395D02*
X0228477Y0222395D01*
X0228067Y0220796D02*
X0223247Y0220796D01*
X0197252Y0172841D02*
X0195148Y0172841D01*
X0195200Y0171242D02*
X0199402Y0171242D01*
X0199402Y0169644D02*
X0194686Y0169644D01*
X0193351Y0168045D02*
X0199402Y0168045D01*
X0197252Y0155257D02*
X0193648Y0155257D01*
X0194809Y0153659D02*
X0197252Y0153659D01*
X0216000Y0150462D02*
X0227419Y0150462D01*
X0225820Y0148863D02*
X0216000Y0148863D01*
X0216000Y0147265D02*
X0223339Y0147265D01*
X0222252Y0145666D02*
X0216000Y0145666D01*
X0216000Y0144068D02*
X0222252Y0144068D01*
X0222252Y0142469D02*
X0216000Y0142469D01*
X0215873Y0140870D02*
X0222252Y0140870D01*
X0222252Y0139272D02*
X0214715Y0139272D01*
X0212218Y0137673D02*
X0222252Y0137673D01*
X0224488Y0136075D02*
X0209821Y0136075D01*
X0207423Y0134476D02*
X0224488Y0134476D01*
X0224488Y0132878D02*
X0205025Y0132878D01*
X0202627Y0131279D02*
X0222446Y0131279D01*
X0222339Y0129681D02*
X0200230Y0129681D01*
X0222339Y0128082D02*
X0144127Y0128082D01*
X0143061Y0126484D02*
X0222339Y0126484D01*
X0222339Y0124885D02*
X0141996Y0124885D01*
X0140930Y0123287D02*
X0222339Y0123287D01*
X0223078Y0121688D02*
X0139864Y0121688D01*
X0124500Y0121688D02*
X0073737Y0121688D01*
X0073737Y0121800D02*
X0068000Y0121800D01*
X0073737Y0121800D01*
X0073549Y0123287D02*
X0124500Y0123287D01*
X0124500Y0124885D02*
X0072850Y0124885D01*
X0071314Y0126484D02*
X0124500Y0126484D01*
X0124500Y0128082D02*
X0072679Y0128082D01*
X0073548Y0129681D02*
X0124500Y0129681D01*
X0124500Y0131279D02*
X0073937Y0131279D01*
X0074028Y0132878D02*
X0124500Y0132878D01*
X0124500Y0134476D02*
X0075626Y0134476D01*
X0077225Y0136075D02*
X0124500Y0136075D01*
X0124500Y0137673D02*
X0078823Y0137673D01*
X0068000Y0121800D02*
X0068000Y0121800D01*
X0068000Y0116063D01*
X0068000Y0121800D01*
X0068000Y0121800D01*
X0068000Y0121688D02*
X0068000Y0121688D01*
X0068000Y0120090D02*
X0068000Y0120090D01*
X0068000Y0118491D02*
X0068000Y0118491D01*
X0068000Y0116893D02*
X0068000Y0116893D01*
X0071006Y0116893D02*
X0124500Y0116893D01*
X0124500Y0118491D02*
X0072687Y0118491D01*
X0073477Y0120090D02*
X0124500Y0120090D01*
X0124500Y0115294D02*
X0061500Y0115294D01*
X0061500Y0113696D02*
X0124500Y0113696D01*
X0124500Y0112097D02*
X0061500Y0112097D01*
X0061500Y0110499D02*
X0124500Y0110499D01*
X0124500Y0108900D02*
X0061500Y0108900D01*
X0061500Y0107302D02*
X0123469Y0107302D01*
X0122339Y0105703D02*
X0061500Y0105703D01*
X0061500Y0104105D02*
X0122339Y0104105D01*
X0122339Y0102506D02*
X0061500Y0102506D01*
X0061500Y0100908D02*
X0122339Y0100908D01*
X0122339Y0099309D02*
X0061500Y0099309D01*
X0061500Y0097711D02*
X0122339Y0097711D01*
X0124500Y0096112D02*
X0061500Y0096112D01*
X0061500Y0094514D02*
X0124500Y0094514D01*
X0124500Y0092915D02*
X0061500Y0092915D01*
X0061500Y0091317D02*
X0064456Y0091317D01*
X0064263Y0091176D02*
X0063624Y0090537D01*
X0063093Y0089807D01*
X0062683Y0089002D01*
X0062404Y0088143D01*
X0062263Y0087252D01*
X0062263Y0086984D01*
X0067816Y0086984D01*
X0067816Y0086616D01*
X0062263Y0086616D01*
X0062263Y0086348D01*
X0062404Y0085457D01*
X0062683Y0084598D01*
X0063093Y0083793D01*
X0063624Y0083063D01*
X0064263Y0082424D01*
X0064993Y0081893D01*
X0065798Y0081483D01*
X0066657Y0081204D01*
X0067548Y0081063D01*
X0067816Y0081063D01*
X0067816Y0086616D01*
X0068184Y0086616D01*
X0068184Y0081063D01*
X0068452Y0081063D01*
X0069343Y0081204D01*
X0070202Y0081483D01*
X0071007Y0081893D01*
X0071737Y0082424D01*
X0072376Y0083063D01*
X0072907Y0083793D01*
X0073317Y0084598D01*
X0073596Y0085457D01*
X0073737Y0086348D01*
X0073737Y0086616D01*
X0068184Y0086616D01*
X0068184Y0086984D01*
X0067816Y0086984D01*
X0067816Y0092537D01*
X0067548Y0092537D01*
X0066657Y0092396D01*
X0065798Y0092117D01*
X0064993Y0091707D01*
X0064263Y0091176D01*
X0063048Y0089718D02*
X0061500Y0089718D01*
X0061500Y0088120D02*
X0062400Y0088120D01*
X0062263Y0086521D02*
X0061500Y0086521D01*
X0061011Y0084923D02*
X0062578Y0084923D01*
X0063434Y0083324D02*
X0059474Y0083324D01*
X0057875Y0081726D02*
X0065322Y0081726D01*
X0067816Y0081726D02*
X0068184Y0081726D01*
X0068184Y0083324D02*
X0067816Y0083324D01*
X0067816Y0084923D02*
X0068184Y0084923D01*
X0068184Y0086521D02*
X0067816Y0086521D01*
X0068184Y0086984D02*
X0073737Y0086984D01*
X0073737Y0087252D01*
X0073596Y0088143D01*
X0073317Y0089002D01*
X0072907Y0089807D01*
X0072376Y0090537D01*
X0071737Y0091176D01*
X0071007Y0091707D01*
X0070202Y0092117D01*
X0069343Y0092396D01*
X0068452Y0092537D01*
X0068184Y0092537D01*
X0068184Y0086984D01*
X0068184Y0088120D02*
X0067816Y0088120D01*
X0067816Y0089718D02*
X0068184Y0089718D01*
X0068184Y0091317D02*
X0067816Y0091317D01*
X0071544Y0091317D02*
X0124500Y0091317D01*
X0124500Y0089718D02*
X0072952Y0089718D01*
X0073600Y0088120D02*
X0124500Y0088120D01*
X0124500Y0086521D02*
X0073737Y0086521D01*
X0073422Y0084923D02*
X0124500Y0084923D01*
X0124500Y0083324D02*
X0072566Y0083324D01*
X0070678Y0081726D02*
X0124500Y0081726D01*
X0124500Y0080127D02*
X0056277Y0080127D01*
X0054678Y0078529D02*
X0124500Y0078529D01*
X0124500Y0076930D02*
X0053080Y0076930D01*
X0055364Y0072134D02*
X0007800Y0072134D01*
X0007800Y0070536D02*
X0053340Y0070536D01*
X0052459Y0068937D02*
X0007800Y0068937D01*
X0007800Y0067339D02*
X0052063Y0067339D01*
X0052063Y0065740D02*
X0007800Y0065740D01*
X0007800Y0064142D02*
X0052675Y0064142D01*
X0053860Y0062543D02*
X0007800Y0062543D01*
X0007800Y0060945D02*
X0055000Y0060945D01*
X0055000Y0059346D02*
X0007800Y0059346D01*
X0007800Y0057748D02*
X0055000Y0057748D01*
X0055000Y0056149D02*
X0007800Y0056149D01*
X0007800Y0054551D02*
X0055000Y0054551D01*
X0055000Y0052952D02*
X0007800Y0052952D01*
X0007800Y0051354D02*
X0055000Y0051354D01*
X0054522Y0049755D02*
X0007800Y0049755D01*
X0007800Y0048157D02*
X0053244Y0048157D01*
X0051965Y0046558D02*
X0007800Y0046558D01*
X0007800Y0044960D02*
X0050686Y0044960D01*
X0049407Y0043361D02*
X0007800Y0043361D01*
X0007800Y0041763D02*
X0025103Y0041763D01*
X0024993Y0041707D02*
X0024263Y0041176D01*
X0023624Y0040537D01*
X0023093Y0039807D01*
X0022683Y0039002D01*
X0022404Y0038143D01*
X0022263Y0037252D01*
X0022263Y0037181D01*
X0027619Y0037181D01*
X0027619Y0036419D01*
X0022263Y0036419D01*
X0022263Y0036348D01*
X0022404Y0035457D01*
X0022683Y0034598D01*
X0023093Y0033793D01*
X0023624Y0033063D01*
X0024263Y0032424D01*
X0024993Y0031893D01*
X0025798Y0031483D01*
X0026657Y0031204D01*
X0027548Y0031063D01*
X0027619Y0031063D01*
X0027619Y0036419D01*
X0028381Y0036419D01*
X0028381Y0037181D01*
X0027619Y0037181D01*
X0027619Y0042537D01*
X0027548Y0042537D01*
X0026657Y0042396D01*
X0025798Y0042117D01*
X0024993Y0041707D01*
X0023353Y0040164D02*
X0007800Y0040164D01*
X0007800Y0038566D02*
X0022541Y0038566D01*
X0022433Y0035369D02*
X0007800Y0035369D01*
X0007800Y0036967D02*
X0027619Y0036967D01*
X0028381Y0036967D02*
X0042063Y0036967D01*
X0042167Y0035369D02*
X0033567Y0035369D01*
X0033596Y0035457D02*
X0033737Y0036348D01*
X0033737Y0036419D01*
X0028381Y0036419D01*
X0028381Y0031063D01*
X0028452Y0031063D01*
X0029343Y0031204D01*
X0030202Y0031483D01*
X0031007Y0031893D01*
X0031737Y0032424D01*
X0032376Y0033063D01*
X0032907Y0033793D01*
X0033317Y0034598D01*
X0033596Y0035457D01*
X0033737Y0037181D02*
X0033737Y0037252D01*
X0033596Y0038143D01*
X0033317Y0039002D01*
X0032907Y0039807D01*
X0032376Y0040537D01*
X0031737Y0041176D01*
X0031007Y0041707D01*
X0030202Y0042117D01*
X0029343Y0042396D01*
X0028452Y0042537D01*
X0028381Y0042537D01*
X0028381Y0037181D01*
X0033737Y0037181D01*
X0033459Y0038566D02*
X0042305Y0038566D01*
X0042968Y0040164D02*
X0032647Y0040164D01*
X0030897Y0041763D02*
X0044567Y0041763D01*
X0042829Y0033770D02*
X0032890Y0033770D01*
X0031390Y0032172D02*
X0044232Y0032172D01*
X0055812Y0041763D02*
X0149500Y0041763D01*
X0149500Y0043361D02*
X0057091Y0043361D01*
X0058370Y0044960D02*
X0149500Y0044960D01*
X0149500Y0046558D02*
X0059649Y0046558D01*
X0060792Y0048157D02*
X0149500Y0048157D01*
X0149500Y0049755D02*
X0061000Y0049755D01*
X0061000Y0051354D02*
X0149500Y0051354D01*
X0149500Y0052952D02*
X0061000Y0052952D01*
X0061000Y0054551D02*
X0149500Y0054551D01*
X0149500Y0056149D02*
X0061000Y0056149D01*
X0061000Y0057748D02*
X0149500Y0057748D01*
X0149500Y0059346D02*
X0061000Y0059346D01*
X0061000Y0060945D02*
X0149500Y0060945D01*
X0149500Y0062543D02*
X0062140Y0062543D01*
X0063325Y0064142D02*
X0149500Y0064142D01*
X0149500Y0065740D02*
X0063937Y0065740D01*
X0063937Y0067339D02*
X0149065Y0067339D01*
X0156500Y0062543D02*
X0157307Y0062543D01*
X0156500Y0060945D02*
X0158905Y0060945D01*
X0160504Y0059346D02*
X0156500Y0059346D01*
X0130913Y0068937D02*
X0063541Y0068937D01*
X0062660Y0070536D02*
X0129314Y0070536D01*
X0127716Y0072134D02*
X0060636Y0072134D01*
X0042920Y0076930D02*
X0007800Y0076930D01*
X0007800Y0075332D02*
X0124820Y0075332D01*
X0126117Y0073733D02*
X0007800Y0073733D01*
X0007800Y0078529D02*
X0041322Y0078529D01*
X0039723Y0080127D02*
X0007800Y0080127D01*
X0007800Y0081726D02*
X0038125Y0081726D01*
X0037116Y0083324D02*
X0007800Y0083324D01*
X0007800Y0084923D02*
X0037000Y0084923D01*
X0037000Y0086521D02*
X0007800Y0086521D01*
X0007800Y0088120D02*
X0037000Y0088120D01*
X0037000Y0089718D02*
X0007800Y0089718D01*
X0007800Y0091317D02*
X0037000Y0091317D01*
X0037000Y0092915D02*
X0007800Y0092915D01*
X0007800Y0094514D02*
X0037000Y0094514D01*
X0037462Y0096112D02*
X0007800Y0096112D01*
X0007800Y0097711D02*
X0038961Y0097711D01*
X0040559Y0099309D02*
X0007800Y0099309D01*
X0007800Y0100908D02*
X0042158Y0100908D01*
X0043756Y0102506D02*
X0007800Y0102506D01*
X0007800Y0104105D02*
X0044500Y0104105D01*
X0044500Y0105703D02*
X0007800Y0105703D01*
X0007800Y0107302D02*
X0044500Y0107302D01*
X0044500Y0108900D02*
X0007800Y0108900D01*
X0007800Y0110499D02*
X0044500Y0110499D01*
X0044500Y0112097D02*
X0007800Y0112097D01*
X0007800Y0113696D02*
X0044500Y0113696D01*
X0044500Y0115294D02*
X0007800Y0115294D01*
X0007800Y0116893D02*
X0044500Y0116893D01*
X0044500Y0118491D02*
X0007800Y0118491D01*
X0007800Y0120090D02*
X0044500Y0120090D01*
X0044500Y0121688D02*
X0007800Y0121688D01*
X0007800Y0123287D02*
X0044500Y0123287D01*
X0044500Y0124885D02*
X0007800Y0124885D01*
X0007800Y0126484D02*
X0044500Y0126484D01*
X0044500Y0128082D02*
X0007800Y0128082D01*
X0007800Y0129681D02*
X0044500Y0129681D01*
X0044500Y0131279D02*
X0007800Y0131279D01*
X0007800Y0132878D02*
X0044500Y0132878D01*
X0044500Y0134476D02*
X0007800Y0134476D01*
X0007800Y0136075D02*
X0044500Y0136075D01*
X0044500Y0137673D02*
X0007800Y0137673D01*
X0007800Y0139272D02*
X0044500Y0139272D01*
X0044500Y0140870D02*
X0007800Y0140870D01*
X0007800Y0142469D02*
X0044500Y0142469D01*
X0044500Y0144068D02*
X0007800Y0144068D01*
X0007800Y0145666D02*
X0044500Y0145666D01*
X0044500Y0147265D02*
X0007800Y0147265D01*
X0007800Y0148863D02*
X0044500Y0148863D01*
X0044500Y0150462D02*
X0007800Y0150462D01*
X0007800Y0152060D02*
X0044500Y0152060D01*
X0044500Y0153659D02*
X0007800Y0153659D01*
X0007800Y0155257D02*
X0044500Y0155257D01*
X0044500Y0156856D02*
X0007800Y0156856D01*
X0007800Y0158454D02*
X0044500Y0158454D01*
X0044500Y0160053D02*
X0007800Y0160053D01*
X0007800Y0161651D02*
X0044500Y0161651D01*
X0044500Y0163250D02*
X0007800Y0163250D01*
X0007800Y0164848D02*
X0044500Y0164848D01*
X0044500Y0166447D02*
X0007800Y0166447D01*
X0007800Y0168045D02*
X0044500Y0168045D01*
X0044500Y0169644D02*
X0007800Y0169644D01*
X0007800Y0171242D02*
X0044500Y0171242D01*
X0044500Y0172841D02*
X0007800Y0172841D01*
X0007800Y0174439D02*
X0044500Y0174439D01*
X0044500Y0176038D02*
X0007800Y0176038D01*
X0007800Y0177636D02*
X0044500Y0177636D01*
X0044500Y0179235D02*
X0007800Y0179235D01*
X0007800Y0180833D02*
X0044500Y0180833D01*
X0044500Y0182432D02*
X0007800Y0182432D01*
X0007800Y0184030D02*
X0044500Y0184030D01*
X0044500Y0185629D02*
X0007800Y0185629D01*
X0007800Y0187227D02*
X0044500Y0187227D01*
X0044500Y0188826D02*
X0007800Y0188826D01*
X0007800Y0190424D02*
X0044500Y0190424D01*
X0044500Y0192023D02*
X0007800Y0192023D01*
X0007800Y0193621D02*
X0044500Y0193621D01*
X0044500Y0195220D02*
X0007800Y0195220D01*
X0007800Y0196818D02*
X0044500Y0196818D01*
X0044500Y0198417D02*
X0007800Y0198417D01*
X0007800Y0200015D02*
X0044500Y0200015D01*
X0044500Y0201614D02*
X0007800Y0201614D01*
X0007800Y0203212D02*
X0044500Y0203212D01*
X0044500Y0204811D02*
X0007800Y0204811D01*
X0007800Y0206409D02*
X0044500Y0206409D01*
X0043176Y0208008D02*
X0041627Y0208008D01*
X0041627Y0206451D02*
X0039015Y0206451D01*
X0038557Y0206573D01*
X0038147Y0206810D01*
X0037812Y0207146D01*
X0037575Y0207556D01*
X0037452Y0208014D01*
X0037452Y0211025D01*
X0041627Y0211025D01*
X0041627Y0206451D01*
X0041627Y0209606D02*
X0043176Y0209606D01*
X0041627Y0211205D02*
X0007800Y0211205D01*
X0007800Y0212803D02*
X0037452Y0212803D01*
X0037452Y0214402D02*
X0007800Y0214402D01*
X0007800Y0216001D02*
X0037563Y0216001D01*
X0041627Y0216001D02*
X0043176Y0216001D01*
X0043176Y0214402D02*
X0041627Y0214402D01*
X0041627Y0212803D02*
X0043176Y0212803D01*
X0044543Y0217599D02*
X0007800Y0217599D01*
X0007800Y0219198D02*
X0045448Y0219198D01*
X0047046Y0220796D02*
X0007800Y0220796D01*
X0007800Y0222395D02*
X0048645Y0222395D01*
X0050243Y0223993D02*
X0007800Y0223993D01*
X0007800Y0225592D02*
X0094500Y0225592D01*
X0094500Y0227190D02*
X0007800Y0227190D01*
X0007800Y0228789D02*
X0094500Y0228789D01*
X0094500Y0230387D02*
X0011487Y0230387D01*
X0013085Y0231986D02*
X0094500Y0231986D01*
X0094951Y0233584D02*
X0014684Y0233584D01*
X0015000Y0235183D02*
X0096433Y0235183D01*
X0098031Y0236781D02*
X0015000Y0236781D01*
X0007800Y0209606D02*
X0037452Y0209606D01*
X0037454Y0208008D02*
X0007800Y0208008D01*
X0075757Y0223993D02*
X0094500Y0223993D01*
X0094500Y0222395D02*
X0077355Y0222395D01*
X0078954Y0220796D02*
X0094500Y0220796D01*
X0094500Y0219198D02*
X0080552Y0219198D01*
X0081457Y0217599D02*
X0094500Y0217599D01*
X0092252Y0216001D02*
X0081500Y0216001D01*
X0129194Y0164848D02*
X0151943Y0164848D01*
X0151021Y0163250D02*
X0130793Y0163250D01*
X0132391Y0161651D02*
X0150800Y0161651D01*
X0151145Y0160053D02*
X0133990Y0160053D01*
X0154633Y0107302D02*
X0170000Y0107302D01*
X0170000Y0105703D02*
X0157210Y0105703D01*
X0158264Y0104105D02*
X0170000Y0104105D01*
X0170000Y0102506D02*
X0158697Y0102506D01*
X0158667Y0100908D02*
X0170000Y0100908D01*
X0170000Y0099309D02*
X0158170Y0099309D01*
X0157024Y0097711D02*
X0170000Y0097711D01*
X0170000Y0096112D02*
X0157084Y0096112D01*
X0158302Y0094514D02*
X0170000Y0094514D01*
X0170000Y0092915D02*
X0158937Y0092915D01*
X0158937Y0091317D02*
X0170000Y0091317D01*
X0170000Y0089718D02*
X0159325Y0089718D01*
X0160923Y0088120D02*
X0170000Y0088120D01*
X0170000Y0086521D02*
X0162522Y0086521D01*
X0164120Y0084923D02*
X0170000Y0084923D01*
X0149325Y0086521D02*
X0137522Y0086521D01*
X0136000Y0088120D02*
X0148284Y0088120D01*
X0147436Y0089718D02*
X0136000Y0089718D01*
X0136000Y0091317D02*
X0147063Y0091317D01*
X0147063Y0092915D02*
X0136000Y0092915D01*
X0136000Y0094514D02*
X0147698Y0094514D01*
X0147867Y0084923D02*
X0139120Y0084923D01*
X0110454Y0032172D02*
X0099371Y0032172D01*
X0100969Y0030573D02*
X0108377Y0030573D01*
X0110911Y0014588D02*
X0111949Y0014588D01*
X0116289Y0014588D02*
X0117327Y0014588D01*
X0123802Y0014588D02*
X0274401Y0014588D01*
X0274401Y0016187D02*
X0007800Y0016187D01*
X0007800Y0017785D02*
X0274401Y0017785D01*
X0269290Y0012990D02*
X0125000Y0012990D01*
X0125000Y0011391D02*
X0267692Y0011391D01*
X0266093Y0009793D02*
X0125000Y0009793D01*
X0125000Y0008194D02*
X0266000Y0008194D01*
X0257737Y0081457D02*
X0255125Y0081457D01*
X0254667Y0081579D01*
X0254257Y0081816D01*
X0253922Y0082151D01*
X0253685Y0082562D01*
X0253562Y0083020D01*
X0253562Y0086025D01*
X0257737Y0086025D01*
X0257737Y0081457D01*
X0257737Y0081726D02*
X0259287Y0081726D01*
X0259287Y0083324D02*
X0257737Y0083324D01*
X0257737Y0084923D02*
X0259287Y0084923D01*
X0259287Y0086521D02*
X0274401Y0086521D01*
X0259287Y0088120D02*
X0257737Y0088120D01*
X0257737Y0089718D02*
X0259287Y0089718D01*
X0259287Y0091317D02*
X0257737Y0091317D01*
X0253846Y0091317D02*
X0252493Y0091317D01*
X0252638Y0089718D02*
X0253562Y0089718D01*
X0253562Y0088120D02*
X0252638Y0088120D01*
X0252638Y0086521D02*
X0257737Y0086521D01*
X0253562Y0084923D02*
X0252638Y0084923D01*
X0252638Y0083324D02*
X0253562Y0083324D01*
X0254414Y0081726D02*
X0251935Y0081726D01*
X0243041Y0081726D02*
X0231500Y0081726D01*
X0231500Y0083324D02*
X0242339Y0083324D01*
X0242339Y0084923D02*
X0231500Y0084923D01*
X0231500Y0086521D02*
X0242339Y0086521D01*
X0241926Y0088120D02*
X0231500Y0088120D01*
X0231500Y0089718D02*
X0240327Y0089718D01*
X0238729Y0091317D02*
X0231500Y0091317D01*
X0231326Y0092915D02*
X0237130Y0092915D01*
X0235532Y0094514D02*
X0230236Y0094514D01*
X0228638Y0096112D02*
X0233933Y0096112D01*
X0232335Y0097711D02*
X0227039Y0097711D01*
X0225441Y0099309D02*
X0230736Y0099309D01*
X0231898Y0121688D02*
X0234479Y0121688D01*
X0234667Y0121579D02*
X0235125Y0121457D01*
X0237737Y0121457D01*
X0237737Y0126025D01*
X0233562Y0126025D01*
X0233562Y0123020D01*
X0233685Y0122562D01*
X0233922Y0122151D01*
X0234257Y0121816D01*
X0234667Y0121579D01*
X0233562Y0123287D02*
X0232638Y0123287D01*
X0232638Y0124885D02*
X0233562Y0124885D01*
X0232638Y0126484D02*
X0237737Y0126484D01*
X0237737Y0124885D02*
X0239287Y0124885D01*
X0239287Y0123287D02*
X0237737Y0123287D01*
X0237737Y0121688D02*
X0239287Y0121688D01*
X0242545Y0121688D02*
X0242986Y0121688D01*
X0233562Y0128082D02*
X0232638Y0128082D01*
X0232638Y0129681D02*
X0233562Y0129681D01*
X0233824Y0131279D02*
X0232530Y0131279D01*
X0222707Y0152060D02*
X0218386Y0152060D01*
X0218748Y0153659D02*
X0222339Y0153659D01*
X0263287Y0124885D02*
X0274401Y0124885D01*
X0274401Y0123287D02*
X0263343Y0123287D01*
X0268010Y0152060D02*
X0274401Y0152060D01*
X0274401Y0153659D02*
X0268461Y0153659D01*
X0268461Y0155257D02*
X0274401Y0155257D01*
X0104586Y0014738D02*
X0104586Y0014738D01*
X0079722Y0014588D02*
X0007800Y0014588D01*
X0011710Y0012990D02*
X0078123Y0012990D01*
X0077457Y0011391D02*
X0013308Y0011391D01*
X0014907Y0009793D02*
X0077457Y0009793D01*
X0077457Y0008194D02*
X0015000Y0008194D01*
X0007800Y0032172D02*
X0024610Y0032172D01*
X0023110Y0033770D02*
X0007800Y0033770D01*
X0027619Y0033770D02*
X0028381Y0033770D01*
X0028381Y0032172D02*
X0027619Y0032172D01*
X0027619Y0035369D02*
X0028381Y0035369D01*
X0028381Y0038566D02*
X0027619Y0038566D01*
X0027619Y0040164D02*
X0028381Y0040164D01*
X0028381Y0041763D02*
X0027619Y0041763D01*
X0061500Y0116893D02*
X0064994Y0116893D01*
X0063313Y0118491D02*
X0061500Y0118491D01*
X0061500Y0120090D02*
X0062523Y0120090D01*
M02*
